<svg width="500" height="508" viewBox="0 0 500 508" fill="none" xmlns="http://www.w3.org/2000/svg">
<g clip-path="url(#clip0)">
<rect width="500" height="508" fill="#1E2A39"/>
<g filter="url(#filter0_d)">
<path fill-rule="evenodd" clip-rule="evenodd" d="M147.096 249.841C140.381 252.873 137.395 260.774 140.427 267.489L233.384 473.37C236.415 480.085 244.317 483.07 251.032 480.038L370.994 425.875C377.708 422.843 380.694 414.942 377.662 408.227L284.706 202.346C281.674 195.631 273.773 192.645 267.058 195.677L147.096 249.841ZM193.243 250.473C191.9 251.079 191.303 252.659 191.909 254.002C192.516 255.345 194.096 255.942 195.439 255.336L238.398 235.939C239.741 235.333 240.339 233.753 239.732 232.41C239.126 231.067 237.546 230.47 236.203 231.076L193.243 250.473Z" fill="url(#paint0_linear)"/>
<path fill-rule="evenodd" clip-rule="evenodd" d="M164.703 126.748L166.533 130.801L156.767 136.186L160.243 143.886L170.375 139.311L193.431 190.376L186.947 193.304C183.736 192.315 178.109 186.506 171.274 176.962C165.608 169.049 162.991 164.101 161.316 160.933C160.259 158.934 159.577 157.643 158.739 156.763L163.053 153.351L154.087 133.492L164.703 126.748ZM164.438 158.58L166.465 157.665L164.452 153.207C167.589 154.393 174.57 160.056 177.392 173.223C180.215 186.391 169.933 168.948 164.438 158.58Z" fill="url(#paint1_linear)"/>
<path fill-rule="evenodd" clip-rule="evenodd" d="M164.703 126.748L166.533 130.801L177.031 127.037L180.507 134.737L170.376 139.311L193.432 190.376L199.916 187.449C201.298 184.385 200.661 176.323 198.023 164.885C195.835 155.402 193.854 150.167 192.585 146.815C191.784 144.7 191.267 143.334 191.161 142.124L185.749 143.104L176.783 123.245L164.703 126.748ZM188.755 147.601L186.729 148.516L184.716 144.058C183.531 147.196 183.162 156.177 191.172 167.002C199.182 177.827 192.898 158.579 188.755 147.601Z" fill="url(#paint2_linear)"/>
<path d="M207.032 223.267L215.083 241.1C215.33 241.645 215.087 242.287 214.542 242.534C213.996 242.78 213.354 242.537 213.107 241.992L205.056 224.159C204.81 223.614 205.052 222.972 205.598 222.725C206.144 222.479 206.786 222.722 207.032 223.267Z" fill="#32342F" stroke="#6A4C1E" stroke-width="0.5"/>
<path d="M210.274 221.803L218.326 239.636C218.572 240.181 218.329 240.823 217.784 241.07C217.238 241.316 216.596 241.073 216.35 240.528L208.298 222.696C208.052 222.15 208.295 221.508 208.84 221.262C209.386 221.015 210.028 221.258 210.274 221.803Z" fill="#32342F" stroke="#6A4C1E" stroke-width="0.5"/>
<path d="M194.152 191.027L208.425 222.638C208.615 223.058 208.428 223.552 208.008 223.742C207.588 223.931 207.095 223.744 206.905 223.325L192.632 191.713C192.443 191.293 192.629 190.799 193.049 190.61C193.469 190.42 193.963 190.607 194.152 191.027Z" fill="#32342F" stroke="#555454"/>
<rect x="29.6914" y="-144.18" width="19.5656" height="308.709" transform="rotate(-24.2995 29.6914 -144.18)" fill="#FDD757"/>
<rect x="31.312" y="-144.912" width="19.5656" height="308.709" transform="rotate(-24.2995 31.312 -144.912)" fill="#C57805"/>
<rect x="30.502" y="-144.546" width="19.5656" height="308.709" transform="rotate(-24.2995 30.502 -144.546)" fill="#FF9900"/>
<circle cx="147.424" cy="90.6388" r="6.22541" transform="rotate(-24.2995 147.424 90.6388)" fill="#F7F7F7"/>
<path d="M151.829 94.9924C151.829 94.9924 143.332 93.4621 145.307 84.7637C141.358 88.0104 140.461 91.4421 143.475 94.8608C147.475 99.3976 151.829 94.9924 151.829 94.9924Z" fill="#C98A2C"/>
</g>
<path d="M167.416 400.429L181.869 393.904L193.332 419.293L178.88 425.819L192.503 455.993L159.595 470.851L145.971 440.677L90.9939 465.5L79.9584 446.265L95.5324 328.964L95.4001 328.671L128.308 313.813L167.416 400.429ZM108.923 426.839L134.508 415.288L114.756 371.54L114.204 375.786L108.923 426.839Z" fill="url(#paint3_linear)"/>
<path d="M352.343 279.55L337.891 286.076L326.427 260.687L340.88 254.161L327.256 223.987L360.164 209.129L373.788 239.303L428.765 214.48L439.801 233.714L424.227 351.015L424.359 351.308L391.451 366.167L352.343 279.55ZM410.836 253.141L385.251 264.692L405.004 308.44L405.555 304.194L410.836 253.141Z" fill="url(#paint4_linear)"/>
<g filter="url(#filter1_d)">
<path d="M314.758 330.847C323.429 350.052 325.786 366.817 321.831 381.142C317.941 395.438 308.151 406.128 292.462 413.212C276.642 420.355 262.037 420.64 248.646 414.068C235.256 407.496 224.254 394.673 215.642 375.599L203.914 349.624C195.243 330.419 192.853 313.669 196.743 299.373C200.699 285.047 210.553 274.328 226.308 267.215C242.062 260.102 256.635 259.831 270.025 266.403C283.416 272.975 294.432 285.83 303.074 304.97L314.758 330.847ZM268.226 315.532C263.611 305.311 258.837 298.297 253.905 294.489C248.943 290.616 243.565 289.988 237.771 292.604C232.107 295.161 229.032 299.371 228.544 305.234C228.121 311.068 229.958 318.781 234.054 328.374L250.456 364.7C255.247 375.311 260.094 382.488 264.997 386.231C269.871 389.908 275.204 390.439 280.998 387.823C286.597 385.295 289.658 381.052 290.181 375.095C290.675 369.072 288.648 360.936 284.098 350.686L268.226 315.532Z" fill="white"/>
</g>
</g>
<defs>
<filter id="filter0_d" x="19.6914" y="-158.963" width="373.461" height="658.491" filterUnits="userSpaceOnUse" color-interpolation-filters="sRGB">
<feFlood flood-opacity="0" result="BackgroundImageFix"/>
<feColorMatrix in="SourceAlpha" type="matrix" values="0 0 0 0 0 0 0 0 0 0 0 0 0 0 0 0 0 0 127 0"/>
<feOffset dy="4"/>
<feGaussianBlur stdDeviation="5"/>
<feColorMatrix type="matrix" values="0 0 0 0 0 0 0 0 0 0 0 0 0 0 0 0 0 0 0.25 0"/>
<feBlend mode="normal" in2="BackgroundImageFix" result="effect1_dropShadow"/>
<feBlend mode="normal" in="SourceGraphic" in2="effect1_dropShadow" result="shape"/>
</filter>
<filter id="filter1_d" x="172.799" y="244.817" width="173.074" height="198.837" filterUnits="userSpaceOnUse" color-interpolation-filters="sRGB">
<feFlood flood-opacity="0" result="BackgroundImageFix"/>
<feColorMatrix in="SourceAlpha" type="matrix" values="0 0 0 0 0 0 0 0 0 0 0 0 0 0 0 0 0 0 127 0"/>
<feOffset dy="4"/>
<feGaussianBlur stdDeviation="2"/>
<feColorMatrix type="matrix" values="0 0 0 0 0 0 0 0 0 0 0 0 0 0 0 0 0 0 0.25 0"/>
<feBlend mode="normal" in2="BackgroundImageFix" result="effect1_dropShadow"/>
<feBlend mode="normal" in="SourceGraphic" in2="effect1_dropShadow" result="shape"/>
</filter>
<linearGradient id="paint0_linear" x1="134.938" y1="255.331" x2="380.799" y2="419.496" gradientUnits="userSpaceOnUse">
<stop stop-color="#FF9900"/>
<stop offset="1" stop-color="#FFC400"/>
</linearGradient>
<linearGradient id="paint1_linear" x1="165.34" y1="165.98" x2="178.531" y2="159.536" gradientUnits="userSpaceOnUse">
<stop stop-color="#181817"/>
<stop offset="0.411458" stop-color="#262722"/>
<stop offset="1" stop-color="#1F1F1F"/>
</linearGradient>
<linearGradient id="paint2_linear" x1="193.709" y1="153.171" x2="180.152" y2="158.804" gradientUnits="userSpaceOnUse">
<stop stop-color="#373736"/>
<stop offset="0.634036" stop-color="#444444"/>
<stop offset="1" stop-color="#252525"/>
</linearGradient>
<linearGradient id="paint3_linear" x1="38.4697" y1="354.376" x2="151.257" y2="535.464" gradientUnits="userSpaceOnUse">
<stop stop-color="#FF9900"/>
<stop offset="1" stop-color="#FFC400"/>
</linearGradient>
<linearGradient id="paint4_linear" x1="481.29" y1="325.604" x2="368.502" y2="144.516" gradientUnits="userSpaceOnUse">
<stop stop-color="#FF9900"/>
<stop offset="1" stop-color="#FFC400"/>
</linearGradient>
<clipPath id="clip0">
<rect width="500" height="508" fill="white"/>
</clipPath>
</defs>
</svg>
