<svg width="29" height="25" viewBox="0 0 29 25" fill="none" xmlns="http://www.w3.org/2000/svg">
<path fill-rule="evenodd" clip-rule="evenodd" d="M9.84375 0H7.03125V1.25H4.21875C1.8888 1.25 0 2.92893 0 5V21.25C0 23.3211 1.8888 25 4.21875 25H23.9063C26.2362 25 28.125 23.3211 28.125 21.25V5C28.125 2.92893 26.2362 1.25 23.9063 1.25H21.0938V0H18.2813V1.25H9.84375V0ZM18.2813 3.75H9.84375V6.25H7.03125V3.75H4.21875C3.4421 3.75 2.8125 4.30964 2.8125 5V7.5H25.3125V5C25.3125 4.30964 24.6829 3.75 23.9063 3.75H21.0938V6.25H18.2813V3.75ZM2.8125 10H25.3125V21.25C25.3125 21.9404 24.6829 22.5 23.9063 22.5H4.21875C3.4421 22.5 2.8125 21.9404 2.8125 21.25V10ZM7.03125 12.5H9.84375V15H7.03125V12.5ZM15.4688 12.5H12.6563V15H15.4688V12.5ZM18.2813 12.5H21.0938V15H18.2813V12.5ZM21.0938 17.5H18.2813V20H21.0938V17.5Z" fill="white"/>
</svg>
