<svg width="236" height="337" viewBox="0 0 236 337" fill="none" xmlns="http://www.w3.org/2000/svg">
<path d="M151.637 314.829C150.044 314.829 148.453 314.477 147.239 313.772L66.0727 266.604C63.6492 265.195 63.6575 262.912 66.1013 261.501L85.1311 252.591C86.3507 251.887 87.9474 251.535 89.5413 251.535C91.1362 251.535 92.7283 251.887 93.9405 252.591L175.107 299.76C177.535 301.171 177.517 303.455 175.078 304.863L156.048 313.772C154.826 314.477 153.231 314.829 151.637 314.829Z" fill="url(#paint0_linear)"/>
<path d="M228.231 110.82C228.125 110.82 228.003 110.785 227.875 110.712L210.408 100.627C209.968 100.374 209.614 99.7592 209.616 99.2561L209.655 85.4597C209.656 85.1019 209.835 84.8958 210.095 84.8958C210.203 84.8958 210.324 84.9308 210.452 85.0053L227.919 95.0895C228.358 95.3425 228.712 95.9569 228.71 96.4618L228.672 110.258C228.671 110.614 228.492 110.82 228.231 110.82Z" fill="#FF9D00" fill-opacity="0.25"/>
<path d="M234.647 135.367C234.54 135.367 234.419 135.332 234.291 135.257L216.823 125.172C216.384 124.919 216.029 124.306 216.031 123.802L216.07 110.005C216.072 109.647 216.25 109.441 216.51 109.441C216.618 109.441 216.739 109.476 216.867 109.551L234.335 119.635C234.773 119.889 235.128 120.502 235.126 121.007L235.087 134.804C235.086 135.161 234.907 135.367 234.647 135.367Z" fill="#FFC400" fill-opacity="0.5"/>
<path d="M176.035 56.9296L176.221 57.0823C176.76 57.5237 177.291 57.9882 177.812 58.4711L177.999 58.6449C178.526 59.1416 179.044 59.6594 179.55 60.1947L179.68 60.3299C180.219 60.9075 180.747 61.5035 181.261 62.1207L181.277 62.1419C181.802 62.7746 182.312 63.4258 182.805 64.0945L182.806 64.0954C183.256 64.7061 183.688 65.3352 184.11 65.9726C184.37 66.3681 184.617 66.7747 184.866 67.1785C185.073 67.5142 185.287 67.8453 185.486 68.1865C185.581 68.3484 185.67 68.514 185.761 68.6767C186.088 69.2525 186.405 69.8329 186.705 70.4206L186.803 70.611C187.165 71.3266 187.506 72.0504 187.825 72.7798L187.873 72.8911C189.863 77.4678 191.021 82.2607 191.008 86.693L199.376 81.8302C199.387 77.901 198.466 73.6931 196.874 69.6002L196.887 69.5919C196.769 69.2884 196.646 68.9858 196.52 68.6832C196.43 68.4643 196.335 68.2463 196.241 68.0283L196.193 67.9161L196.139 67.791C196.005 67.4884 195.867 67.1876 195.727 66.8869C195.572 66.5567 195.412 66.2274 195.249 65.8991L195.171 65.7482L195.073 65.5578C194.94 65.2966 194.807 65.0354 194.669 64.776C194.495 64.4504 194.309 64.1322 194.127 63.8112C194.036 63.6493 193.948 63.4856 193.855 63.3256L193.747 63.1324C193.584 62.8547 193.402 62.5879 193.232 62.3129C192.984 61.9091 192.738 61.5045 192.478 61.1108L192.358 60.9186C191.975 60.3465 191.579 59.7836 191.174 59.2326L191.173 59.2317V59.2308C190.901 58.862 190.623 58.4978 190.341 58.1391C190.112 57.8484 189.881 57.5624 189.645 57.2791L189.628 57.2579L189.618 57.2469C189.381 56.9608 189.14 56.6794 188.896 56.4007C188.656 56.1284 188.414 55.859 188.168 55.595L188.047 55.4681L187.917 55.331C187.746 55.1508 187.577 54.9686 187.403 54.792C187.142 54.5271 186.88 54.2678 186.615 54.013L186.366 53.7831L186.179 53.6074C186.05 53.4878 185.922 53.3646 185.791 53.2478C185.517 52.9994 185.239 52.7575 184.959 52.5212C184.837 52.4181 184.712 52.3197 184.589 52.2195L184.403 52.0668C184.31 51.9923 184.219 51.9141 184.127 51.8415C183.854 51.6272 183.581 51.4184 183.305 51.2151C183.106 51.0679 182.905 50.9281 182.704 50.7874L182.594 50.7092L182.491 50.6366C182.227 50.4563 181.963 50.2806 181.697 50.1114C181.434 49.944 181.17 49.7821 180.905 49.6267L180.722 49.5191L100.825 3.39127C100.626 3.27631 100.428 3.16592 100.231 3.05831C99.9741 2.91943 99.7174 2.787 99.4636 2.66099C99.298 2.57913 99.1352 2.50555 98.9715 2.42921L98.851 2.37312L98.7066 2.30414C98.4546 2.19192 98.2053 2.08614 97.957 1.9868C97.7041 1.88471 97.4521 1.78999 97.2019 1.70261L97.074 1.6612L96.9591 1.62348C96.7898 1.56645 96.6197 1.50853 96.4532 1.45794C96.1929 1.37884 95.9345 1.30804 95.6797 1.24457C95.5555 1.2133 95.4341 1.19029 95.3118 1.1627L95.1508 1.12682L94.9126 1.07346C94.6358 1.01919 94.3635 0.97507 94.0931 0.938286C93.9257 0.916208 93.7638 0.904229 93.5992 0.887668L93.4263 0.870196L93.2598 0.853675C92.9627 0.833436 92.6693 0.823312 92.3805 0.825152C92.2527 0.825152 92.1294 0.838026 92.0034 0.842624C91.9059 0.846302 91.8084 0.849973 91.7118 0.85641C91.6116 0.862847 91.5095 0.861919 91.4102 0.870196C91.0423 0.904229 90.6826 0.956678 90.3313 1.02658L90.312 1.0321L90.083 1.09556C89.7224 1.17833 89.3646 1.2657 89.0234 1.38711L88.9057 1.43494L88.7364 1.50393C88.3115 1.67133 87.8985 1.85988 87.5076 2.08799L79.1396 6.95076C79.5315 6.72358 79.9444 6.5341 80.3684 6.3667L80.5377 6.29773C80.9166 6.157 81.313 6.05031 81.7159 5.95834L81.944 5.89578C82.3965 5.80381 82.8656 5.74954 83.3439 5.71919C83.4414 5.71276 83.5379 5.70909 83.6354 5.70541C84.099 5.68793 84.5727 5.69343 85.0583 5.73298L85.2312 5.7514C85.738 5.79922 86.2549 5.87739 86.7819 5.9896L86.9438 6.02548C87.4837 6.14597 88.0328 6.29863 88.592 6.48626L88.707 6.52398C89.2892 6.72357 89.8815 6.96087 90.483 7.23496L90.6044 7.29199C91.2142 7.57619 91.8323 7.89259 92.4578 8.25406L172.354 54.3818C172.986 54.747 173.61 55.1461 174.226 55.5729L174.336 55.6502C174.91 56.0512 175.476 56.4789 176.035 56.9296Z" fill="url(#paint1_linear)"/>
<path d="M199.364 80.9859C199.355 80.686 199.341 80.3844 199.322 80.0808C199.303 79.7783 199.279 79.4756 199.249 79.1712C199.221 78.8668 199.187 78.5605 199.148 78.2542C199.108 77.9415 199.063 77.6288 199.014 77.3142C198.964 76.9996 198.91 76.6842 198.851 76.3678C198.789 76.0431 198.723 75.7184 198.652 75.3919C198.581 75.0654 198.505 74.7389 198.424 74.4124C198.341 74.0813 198.255 73.7501 198.163 73.419C198.071 73.0898 197.974 72.7595 197.874 72.4303C197.776 72.1074 197.671 71.7846 197.563 71.4627C197.457 71.1445 197.346 70.8262 197.231 70.5089C197.121 70.2026 197.006 69.8973 196.887 69.5919L188.519 74.4547C188.638 74.76 188.752 75.0654 188.863 75.3717C188.978 75.689 189.089 76.0072 189.196 76.3255C189.304 76.6474 189.407 76.9702 189.506 77.2931C189.607 77.6223 189.703 77.9525 189.795 78.2818C189.886 78.6129 189.973 78.944 190.056 79.2752C190.137 79.6017 190.213 79.9291 190.284 80.2556C190.355 80.5812 190.422 80.9068 190.483 81.2315C190.542 81.547 190.596 81.8624 190.647 82.177C190.695 82.4915 190.74 82.8052 190.779 83.117C190.819 83.4233 190.853 83.7286 190.882 84.0331C190.912 84.3384 190.935 84.6419 190.955 84.9436C190.973 85.2471 190.988 85.5488 190.997 85.8487C191.004 86.132 191.009 86.4134 191.008 86.693L190.465 278.399C190.462 279.109 190.427 279.791 190.366 280.451L190.348 280.628C190.287 281.232 190.201 281.814 190.093 282.373L190.049 282.595C189.937 283.136 189.802 283.655 189.647 284.151C189.617 284.244 189.586 284.334 189.555 284.425C189.399 284.892 189.227 285.34 189.032 285.764L188.973 285.906C188.745 286.389 188.494 286.843 188.221 287.268L188.103 287.433C187.875 287.771 187.634 288.089 187.38 288.388C187.286 288.498 187.188 288.601 187.091 288.705C186.866 288.946 186.633 289.172 186.39 289.383C186.289 289.472 186.189 289.563 186.086 289.646C185.741 289.922 185.383 290.179 185.004 290.401L193.372 285.537C193.751 285.316 194.108 285.059 194.454 284.784C194.558 284.7 194.656 284.61 194.757 284.52C195.001 284.309 195.234 284.083 195.459 283.843C195.556 283.738 195.654 283.635 195.748 283.525C196.002 283.226 196.244 282.908 196.471 282.571L196.589 282.405L196.615 282.368C196.871 281.967 197.107 281.54 197.321 281.088L197.341 281.044L197.4 280.898C197.531 280.614 197.658 280.326 197.77 280.024C197.825 279.875 197.871 279.717 197.923 279.563C197.954 279.471 197.985 279.38 198.015 279.287C198.041 279.203 198.072 279.124 198.097 279.039C198.189 278.729 198.271 278.411 198.346 278.084C198.372 277.97 198.393 277.849 198.417 277.734L198.462 277.509C198.483 277.395 198.509 277.285 198.53 277.169C198.58 276.876 198.625 276.578 198.662 276.275C198.684 276.108 198.699 275.935 198.716 275.764L198.735 275.588L198.756 275.375C198.779 275.086 198.798 274.792 198.811 274.493C198.823 274.196 198.831 273.895 198.832 273.589L198.832 273.536L199.376 81.8302C199.377 81.5506 199.372 81.2692 199.364 80.9859Z" fill="url(#paint2_linear)"/>
<path d="M172.354 54.3818C182.686 60.3474 191.042 74.8125 191.009 86.6939L190.465 278.399C190.431 290.271 182.021 295.064 171.688 289.099L91.7924 242.97C81.4607 237.006 73.1038 222.532 73.1378 210.659L73.6814 18.9545C73.7145 7.07307 82.1257 2.28847 92.4583 8.25403L172.354 54.3818Z" fill="#444444"/>
<path d="M142.889 55.8039C144.14 56.5259 145.153 58.279 145.149 59.7166C145.144 61.1624 144.126 61.7437 142.874 61.0208L122.272 49.1255C121.02 48.4035 120.008 46.6505 120.013 45.2046C120.016 43.767 121.035 43.1867 122.285 43.9087L142.889 55.8039Z" fill="#7E7E7E"/>
<path d="M132.053 238.434C135.427 240.382 138.153 245.105 138.143 248.982C138.132 252.858 135.386 254.422 132.014 252.475C128.64 250.527 125.913 245.803 125.924 241.926C125.934 238.051 128.68 236.486 132.053 238.434Z" fill="#BABABA"/>
<path d="M182.804 95.7307C183.843 96.3303 184.681 97.7836 184.678 98.9765L184.223 259.159C184.22 260.352 183.376 260.833 182.337 260.233L81.8081 202.193C80.7697 201.593 79.9309 200.141 79.9346 198.947L80.3889 38.7653C80.3926 37.5715 81.236 37.0904 82.2744 37.6901L182.804 95.7307Z" fill="url(#paint3_linear)"/>
<path d="M195.392 151.302C194.737 151.302 194.205 150.771 194.205 150.115V114.497C194.205 113.842 194.737 113.31 195.392 113.31C196.048 113.31 196.58 113.842 196.58 114.497V150.115C196.58 150.771 196.048 151.302 195.392 151.302Z" fill="#BABABA"/>
<path d="M195.392 195.627C194.737 195.627 194.205 195.095 194.205 194.44V158.821C194.205 158.166 194.737 157.634 195.392 157.634C196.048 157.634 196.58 158.166 196.58 158.821V194.44C196.58 195.095 196.048 195.627 195.392 195.627Z" fill="#BABABA"/>
<path d="M195.392 250.092C194.737 250.092 194.205 249.56 194.205 248.905V230.453C194.205 229.798 194.737 229.266 195.392 229.266C196.048 229.266 196.58 229.798 196.58 230.453V248.905C196.58 249.56 196.048 250.092 195.392 250.092Z" fill="#BABABA"/>
<path d="M173.686 158.614C174.876 159.301 175.835 160.963 175.831 162.322L175.806 171.354C175.802 172.722 174.835 173.273 173.645 172.586L91.0286 124.886C89.8385 124.199 88.8791 122.537 88.8828 121.169L88.9086 112.137C88.9123 110.778 89.878 110.228 91.0682 110.915L173.686 158.614Z" fill="#303030" fill-opacity="0.1"/>
<path d="M131.584 105.314C134.752 107.144 137.323 105.67 137.334 102.038C137.344 98.3969 134.79 93.9738 131.621 92.1444C128.46 90.3187 125.883 91.7802 125.872 95.4206C125.861 99.0527 128.422 103.49 131.584 105.314ZM145.487 104.868C145.971 106.475 146.319 108.087 146.51 109.667C146.625 110.614 146.684 111.55 146.681 112.468C146.68 112.748 146.672 113.021 146.66 113.291L146.655 113.414C146.642 113.67 146.623 113.92 146.601 114.167L146.586 114.31C146.563 114.556 146.533 114.8 146.499 115.037C146.449 115.36 146.41 115.59 146.365 115.815C146.307 116.107 146.253 116.331 146.197 116.551L146.168 116.664C146.112 116.879 146.051 117.087 145.986 117.292L145.949 117.403C145.881 117.609 145.81 117.812 145.733 118.008C145.634 118.254 145.554 118.439 145.47 118.618C145.35 118.874 145.259 119.049 145.164 119.222L145.109 119.321C145.014 119.491 144.915 119.655 144.811 119.814L144.761 119.89C144.651 120.055 144.539 120.216 144.42 120.371C144.298 120.53 144.175 120.677 144.05 120.82L143.995 120.88C143.873 121.016 143.747 121.146 143.618 121.271L143.544 121.341C143.413 121.465 143.281 121.582 143.144 121.694L143.079 121.745C142.942 121.855 142.803 121.959 142.659 122.059C142.48 122.182 142.328 122.276 142.173 122.365L142.087 122.416C141.937 122.5 141.783 122.579 141.627 122.654L141.53 122.698C141.369 122.771 141.206 122.84 141.038 122.903C140.901 122.952 140.813 122.978 140.727 123.005C140.673 117.075 136.507 109.91 131.366 106.942C126.174 103.945 121.953 106.35 121.937 112.307C121.943 112.32 122.088 112.558 122.364 112.981C122.242 112.811 122.118 112.641 121.998 112.468C121.767 112.132 121.609 111.898 121.453 111.662L121.368 111.533C121.204 111.28 121.043 111.025 120.884 110.768L120.783 110.603C120.622 110.339 120.462 110.072 120.307 109.804C120.14 109.514 119.992 109.247 119.846 108.98L119.761 108.825C119.617 108.558 119.477 108.288 119.339 108.018L119.265 107.87C119.135 107.609 119.006 107.348 118.882 107.086C118.717 106.734 118.591 106.454 118.468 106.174L118.392 106.002C118.271 105.723 118.153 105.443 118.04 105.163C117.895 104.799 117.792 104.534 117.693 104.266L117.643 104.133C117.539 103.853 117.442 103.572 117.346 103.29L117.29 103.121C117.099 102.544 116.924 101.967 116.768 101.389L116.723 101.218C116.649 100.937 116.578 100.658 116.513 100.378L116.479 100.228C116.419 99.9624 116.361 99.6975 116.309 99.4317C116.235 99.0582 116.187 98.7777 116.141 98.4981L116.113 98.3179C116.069 98.0382 116.029 97.7586 115.995 97.4809C115.954 97.1249 115.927 96.8637 115.905 96.6034L115.892 96.4627C115.872 96.1904 115.854 95.9191 115.843 95.6496L115.837 95.4776C115.827 95.2008 115.82 94.9258 115.821 94.6517C115.824 93.7338 115.887 92.8673 116.006 92.0552C116.206 90.7004 116.562 89.4955 117.053 88.4525C117.151 88.2437 117.255 88.0404 117.364 87.8445C119.872 83.3423 125.173 82.2965 131.297 85.833C136.794 89.0062 141.608 95.095 144.328 101.646C144.508 102.077 144.681 102.509 144.842 102.943C145.078 103.583 145.293 104.225 145.487 104.868Z" fill="white"/>
<path fill-rule="evenodd" clip-rule="evenodd" d="M137.333 102.038C137.343 98.397 134.789 93.9738 131.621 92.1444C128.459 90.3196 125.882 91.7802 125.872 95.4206C125.861 99.0537 128.423 103.49 131.584 105.314C134.752 107.144 137.322 105.67 137.333 102.038ZM140.726 123.012C140.676 117.082 136.509 109.912 131.366 106.942C126.174 103.945 121.953 106.35 121.937 112.308C121.944 112.321 122.1 112.582 122.404 113.042C123.595 114.845 126.934 119.514 131.013 121.868L131.195 121.971C136.405 124.876 140.503 123.247 140.726 123.158L140.727 123.158L140.726 123.012Z" fill="#444444"/>
<path d="M173.631 178.273C174.821 178.96 175.78 180.622 175.777 181.989L175.75 191.022C175.746 192.39 174.781 192.932 173.59 192.245L90.973 144.545C89.7837 143.858 88.8235 142.205 88.8272 140.837L88.8529 131.804C88.8566 130.438 89.8233 129.887 91.0125 130.574L173.631 178.273Z" fill="#303030" fill-opacity="0.1"/>
<path d="M141.381 192.912C144.201 194.54 146.474 198.487 146.465 201.719L146.46 203.792C146.45 207.033 144.162 208.337 141.341 206.708L114.62 191.282C111.801 189.653 109.52 185.71 109.528 182.47L109.534 180.397C109.544 177.165 111.841 175.856 114.66 177.484L141.381 192.912Z" fill="white"/>
<path opacity="0.5" d="M83.7548 336.38C66.9866 336.38 53.3926 328.302 53.3926 318.339C53.3926 308.375 66.9866 300.297 83.7548 300.297C100.524 300.297 114.117 308.375 114.117 318.339C114.117 328.302 100.524 336.38 83.7548 336.38Z" fill="url(#paint4_linear)"/>
<path d="M114.579 195.739C114.579 195.739 116.392 194.529 116.845 193.925C117.299 193.321 117.903 189.844 117.299 189.693C116.693 189.542 116.241 191.96 116.241 191.96C116.241 191.96 116.089 185.613 115.334 184.706C114.579 183.8 112.161 188.333 112.01 189.089C111.858 189.844 111.253 193.018 111.253 193.018C111.253 193.018 112.161 195.739 114.579 195.739Z" fill="#F68B5F"/>
<path d="M68.3888 213.96C68.3888 213.96 63.6502 218.709 66.9752 224.451C70.2992 230.195 92.9676 215.988 95.3856 213.873C97.8037 211.757 113.671 197.552 114.579 195.739C115.485 193.925 113.521 192.111 111.102 192.413C108.684 192.716 99.0132 202.992 91.4564 207.828C91.4564 207.828 73.4291 211.931 68.3888 213.96Z" fill="black"/>
<path d="M71.1649 314.453C71.1649 314.453 70.7749 317.313 71.2946 318.484C71.8151 319.526 73.8956 320.304 75.3268 319.264C76.757 318.225 79.2275 315.623 79.2275 315.623C79.2275 315.623 83.3894 313.413 83.7794 312.243C84.1694 311.072 82.7391 310.032 81.5683 310.292C80.3983 310.552 77.0173 312.632 75.4565 312.632C73.8956 312.632 71.6855 313.022 71.1649 314.453Z" fill="white"/>
<path d="M66.8779 253.554C66.8779 253.554 70.5174 313.62 70.9709 315.36C71.4252 317.1 76.1454 318.1 77.021 315.335C77.5766 313.581 78.947 257.995 78.947 257.995L66.8779 253.554Z" fill="url(#paint5_linear)"/>
<path d="M83.2009 318.028C82.9967 318.203 82.8845 318.458 82.8818 318.727C82.8735 319.553 82.9121 321.395 83.3794 322.111C83.9901 323.049 85.8995 324.042 87.8982 322.955C89.5832 322.041 94.7669 318.165 95.82 317.307C96.4583 316.788 96.7426 316.144 96.8677 315.651C96.9808 315.206 96.7545 314.747 96.3351 314.561C95.6011 314.234 94.3438 313.825 93.2199 314.202C91.5027 314.78 89.3403 316.64 87.0023 316.539C85.2446 316.464 83.8071 317.505 83.2009 318.028Z" fill="white"/>
<path d="M91.234 254.202C90.9709 251.706 87.9835 250.895 85.2334 251.745C79.9835 251.462 71.8555 251.686 71.5704 255.759C71.1482 261.792 73.9765 266.097 76.7045 269.024C78.7206 271.188 80.0616 275.327 80.6264 277.344C81.1037 293.275 82.1596 315.739 82.8182 317.889C83.8796 321.353 89.1047 321.197 89.3411 317.824C90.3988 306.426 91.234 254.202 91.234 254.202Z" fill="url(#paint6_linear)"/>
<path d="M91.2472 256.001C90.631 259.083 81.8464 260.624 76.7095 259.803C71.5726 258.98 66.0412 256.461 66.2233 250.504C66.2233 250.504 67.1992 236.265 66.8092 233.729C66.4192 231.192 65.4434 226.706 65.4434 222.025C65.4434 217.344 68.3884 213.878 68.3884 213.878C68.3884 213.878 71.2645 210.59 80.3058 212.44C80.3058 212.44 87.6721 214.044 91.0624 219.489C91.0624 219.489 93.4031 225.472 92.6223 237.955C91.8423 250.439 91.2472 256.001 91.2472 256.001Z" fill="black"/>
<path d="M73.2469 205.917C73.2469 205.917 74.0268 210.468 73.2469 212.549C73.1163 213.59 77.6682 217.1 81.6995 216.191C84.0394 215.671 83.9097 214.499 83.9097 214.499C83.9097 214.499 81.9589 211.249 82.2192 208.127C82.4795 205.006 75.9767 205.267 73.2469 205.917Z" fill="#F36637"/>
<path d="M88.461 196.749C88.461 202.675 83.6571 207.477 77.732 207.477C71.8069 207.477 67.0039 202.675 67.0039 196.749C67.0039 190.824 71.8069 186.02 77.732 186.02C83.6571 186.02 88.461 190.824 88.461 196.749Z" fill="#F68B5F"/>
<path d="M88.4614 197.464C88.4614 197.464 88.5911 208.211 86.2503 210.381C83.9096 212.549 80.317 208.35 74.5703 207.003C68.8246 205.527 79.228 194.353 79.228 194.353L88.4614 197.464Z" fill="#F68B5F"/>
<path d="M112.275 213.344C112.275 213.344 111.254 209.151 111.594 208.81C111.934 208.47 113.295 210.284 113.295 210.284C113.295 210.284 113.974 205.977 114.542 205.523C115.108 205.07 117.375 207.337 117.715 208.583C118.055 209.83 116.355 214.817 115.675 214.931C114.995 215.045 112.615 215.384 112.275 213.344Z" fill="#F68B5F"/>
<path d="M87.9056 218.248C87.9056 218.248 83.1449 220.516 85.1849 226.41C87.225 232.303 102.413 234.57 104.227 232.757C106.04 230.943 113.973 221.649 116.241 214.622C116.241 214.622 115.334 211.902 111.706 213.035C111.706 213.035 103.093 223.916 101.733 225.05C100.372 226.182 90.1719 217.795 87.9056 218.248Z" fill="black"/>
<path d="M68.5524 188.574C68.5524 188.574 71.8948 184.487 77.6525 184.116C83.4102 183.745 86.1962 185.601 88.4248 185.415C90.6533 185.231 92.6971 187.088 91.9539 189.874C91.2107 192.659 89.5395 195.445 85.8246 195.445C82.1097 195.445 81.1817 194.888 81.1817 194.888C81.1817 194.888 84.1534 196.189 84.525 198.789C84.8966 201.389 84.8966 205.289 84.8966 205.289H83.9676C83.9676 205.289 83.2245 201.017 81.7381 201.017C80.2527 201.017 80.2527 205.661 81.5533 206.403C82.8529 207.147 82.8529 207.147 82.8529 207.147C82.8529 207.147 80.3594 211.767 79.0064 211.964C77.6526 212.161 73.1954 208.818 73.1954 208.818C73.1954 208.818 65.7656 205.289 65.0233 199.532C64.2802 193.774 68.5524 188.574 68.5524 188.574Z" fill="#802C33"/>
<path d="M22.1451 205.921C22.1451 205.921 26.3126 202.374 26.5462 203.008C26.7789 203.641 25.1224 205.403 25.1224 205.403C25.1224 205.403 30.7007 203.265 30.7651 203.99C30.8304 204.716 27.821 206.987 27.0254 207.525C26.2289 208.063 23.3877 208.833 23.3877 208.833C23.3877 208.833 21.8278 206.742 22.1451 205.921Z" fill="#F68B5F"/>
<path fill-rule="evenodd" clip-rule="evenodd" d="M4.20003 241.352C2.26486 241.352 0.922923 239.814 0.915564 237.162L0.843829 211.626C1.01911 211.709 1.19083 211.786 1.35853 211.855C1.19089 211.786 1.01924 211.709 0.844008 211.626L0.822856 204.376C0.822924 204.376 0.822993 204.376 0.823062 204.376L0.807422 198.709C0.834922 198.694 0.862426 198.68 0.889731 198.667C0.908084 198.657 0.926349 198.648 0.944465 198.639C1.57818 198.321 2.10245 198.125 2.28272 198.089C2.30756 198.084 2.34251 198.081 2.38666 198.081C2.56132 198.081 2.8804 198.119 3.2824 198.183C2.88022 198.119 2.561 198.081 2.38627 198.081C2.34212 198.081 2.30717 198.084 2.28234 198.089C2.10208 198.125 1.57788 198.32 0.944232 198.639L0.944259 198.639C0.899188 198.662 0.853202 198.685 0.807216 198.709L0.805373 198.143L0.805198 198.143L0.750014 178.566C0.745414 176.984 1.86292 175.042 3.23244 174.251L38.1373 154.099C39.0746 153.559 39.9621 153.302 40.7513 153.302C42.6865 153.302 44.0284 154.842 44.0358 157.493L44.2022 216.089C44.2068 217.67 43.0893 219.613 41.7189 220.404L6.81491 240.556C5.87767 241.097 4.99011 241.352 4.20003 241.352ZM23.3882 208.832C23.3882 208.832 21.8283 206.742 22.1456 205.92C22.1456 205.92 22.2533 205.828 22.4354 205.677L22.2178 205.684L22.4352 205.677C23.2924 204.964 25.7896 202.931 26.4141 202.931C26.4812 202.931 26.5272 202.955 26.5465 203.008C26.7792 203.641 25.1227 205.403 25.1227 205.403C25.1227 205.403 29.2009 203.84 30.4233 203.84C30.6312 203.84 30.7563 203.885 30.7655 203.99C30.8308 204.716 27.8213 206.987 27.0257 207.524C26.644 207.782 25.7932 208.093 25.0105 208.347L25.0105 208.347C24.1598 208.624 23.3882 208.832 23.3882 208.832ZM13.0435 205.893L13.0437 205.893C13.0436 205.893 13.0436 205.893 13.0435 205.893Z" fill="#FFC400" fill-opacity="0.5"/>
<path d="M8.58819 195.486C8.17797 195.723 7.84778 196.295 7.84962 196.763L7.8579 199.876C7.85882 200.346 8.19177 200.535 8.60199 200.3L37.0621 183.867C37.4723 183.631 37.8025 183.059 37.8007 182.588L37.7924 179.476C37.7915 179.007 37.4585 178.818 37.0483 179.055L8.58819 195.486Z" fill="white"/>
<path d="M8.60771 202.259C8.19749 202.495 7.86731 203.067 7.86915 203.539L7.87742 206.651C7.87834 207.122 8.21129 207.308 8.62151 207.071L37.0817 190.641C37.4919 190.403 37.8221 189.834 37.8202 189.363L37.8119 186.251C37.8101 185.78 37.4781 185.59 37.0679 185.827L8.60771 202.259Z" fill="white"/>
<path d="M19.717 207.301C18.7457 207.862 17.9621 209.223 17.9649 210.335L17.9667 211.049C17.9704 212.166 18.7586 212.615 19.7299 212.054L28.9348 206.74C29.9061 206.179 30.6925 204.821 30.6888 203.705L30.687 202.99C30.6842 201.876 29.8923 201.426 28.9211 201.988L19.717 207.301Z" fill="white"/>
<defs>
<linearGradient id="paint0_linear" x1="176.918" y1="283.182" x2="64.2617" y2="283.182" gradientUnits="userSpaceOnUse">
<stop stop-color="#FF9900" stop-opacity="0.5"/>
<stop offset="1" stop-color="#FFC400" stop-opacity="0.5"/>
</linearGradient>
<linearGradient id="paint1_linear" x1="79.1396" y1="43.7586" x2="199.375" y2="43.7586" gradientUnits="userSpaceOnUse">
<stop/>
<stop offset="0.939976" stop-color="#5C5C5C"/>
<stop offset="1" stop-color="#9A9A9A"/>
</linearGradient>
<linearGradient id="paint2_linear" x1="192.19" y1="300.501" x2="192.19" y2="93.834" gradientUnits="userSpaceOnUse">
<stop stop-color="#595959"/>
<stop offset="0.939976" stop-color="#595959"/>
<stop offset="1" stop-color="#828282"/>
</linearGradient>
<linearGradient id="paint3_linear" x1="135.657" y1="248.954" x2="128.129" y2="66.5662" gradientUnits="userSpaceOnUse">
<stop stop-color="#FF9900"/>
<stop offset="1" stop-color="#FFC400"/>
</linearGradient>
<linearGradient id="paint4_linear" x1="103.388" y1="331.05" x2="68.1665" y2="305.125" gradientUnits="userSpaceOnUse">
<stop stop-color="#303030"/>
<stop offset="1"/>
</linearGradient>
<linearGradient id="paint5_linear" x1="77.548" y1="280.455" x2="66.9248" y2="280.134" gradientUnits="userSpaceOnUse">
<stop stop-color="#2061AC"/>
<stop offset="1" stop-color="#003144"/>
</linearGradient>
<linearGradient id="paint6_linear" x1="88.9497" y1="280.65" x2="71.6247" y2="279.862" gradientUnits="userSpaceOnUse">
<stop stop-color="#2061AC"/>
<stop offset="1" stop-color="#003144"/>
</linearGradient>
</defs>
</svg>
