<svg width="350" height="350" viewBox="0 0 350 350" fill="none" xmlns="http://www.w3.org/2000/svg">
<g clip-path="url(#clip0)">
<path d="M0 350H350V3.67562e-05H0V350Z" fill="white"/>
<path d="M208.637 320.829C207.044 320.829 205.453 320.477 204.239 319.772L123.073 272.604C120.649 271.195 120.657 268.912 123.101 267.501L142.131 258.591C143.351 257.887 144.947 257.535 146.541 257.535C148.136 257.535 149.728 257.887 150.941 258.591L232.107 305.76C234.535 307.171 234.517 309.455 232.078 310.863L213.048 319.772C211.826 320.477 210.231 320.829 208.637 320.829" fill="url(#paint0_linear)"/>
<path d="M285.231 116.82C285.125 116.82 285.003 116.785 284.875 116.712L267.408 106.627C266.968 106.374 266.614 105.759 266.616 105.256L266.655 91.4597C266.656 91.1019 266.835 90.8958 267.095 90.8958C267.203 90.8958 267.324 90.9308 267.452 91.0053L284.919 101.09C285.358 101.342 285.712 101.957 285.71 102.462L285.672 116.258C285.671 116.614 285.492 116.82 285.231 116.82" fill="#FF9D00" fill-opacity="0.25"/>
<path d="M291.647 141.367C291.54 141.367 291.419 141.332 291.291 141.257L273.823 131.172C273.384 130.919 273.029 130.306 273.031 129.802L273.07 116.005C273.072 115.647 273.25 115.441 273.51 115.441C273.618 115.441 273.739 115.476 273.867 115.551L291.335 125.635C291.773 125.889 292.128 126.502 292.126 127.007L292.087 140.804C292.086 141.161 291.907 141.367 291.647 141.367Z" fill="#FFC400" fill-opacity="0.5"/>
<path d="M233.035 62.9296L233.221 63.0823C233.76 63.5237 234.291 63.9882 234.812 64.4711L234.999 64.6449C235.526 65.1416 236.044 65.6594 236.55 66.1947L236.68 66.3299C237.219 66.9075 237.747 67.5035 238.261 68.1207L238.277 68.1419C238.802 68.7746 239.312 69.4258 239.805 70.0945L239.806 70.0954C240.256 70.7061 240.688 71.3352 241.11 71.9726C241.37 72.3681 241.617 72.7747 241.866 73.1785C242.073 73.5142 242.287 73.8453 242.486 74.1865C242.581 74.3484 242.67 74.514 242.761 74.6767C243.088 75.2525 243.405 75.8329 243.705 76.4206L243.803 76.611C244.165 77.3266 244.506 78.0504 244.825 78.7798L244.873 78.8911C246.863 83.4678 248.021 88.2607 248.008 92.693L256.376 87.8302C256.387 83.901 255.466 79.6931 253.874 75.6002L253.887 75.5919C253.769 75.2884 253.646 74.9858 253.52 74.6832C253.43 74.4643 253.335 74.2463 253.241 74.0283L253.193 73.9161L253.139 73.791C253.005 73.4884 252.867 73.1876 252.727 72.8869C252.572 72.5567 252.412 72.2274 252.249 71.8991L252.171 71.7482L252.073 71.5578C251.94 71.2966 251.807 71.0354 251.669 70.776C251.495 70.4504 251.309 70.1322 251.127 69.8112C251.036 69.6493 250.948 69.4856 250.855 69.3256L250.747 69.1324C250.584 68.8547 250.402 68.5879 250.232 68.3129C249.984 67.9091 249.738 67.5045 249.478 67.1108L249.358 66.9186C248.975 66.3465 248.579 65.7836 248.174 65.2326L248.173 65.2317V65.2308C247.901 64.862 247.623 64.4978 247.341 64.1391C247.112 63.8484 246.881 63.5624 246.645 63.2791L246.628 63.2579L246.618 63.2469C246.381 62.9608 246.14 62.6794 245.896 62.4007C245.656 62.1284 245.414 61.859 245.168 61.595L245.047 61.4681L244.917 61.331C244.746 61.1508 244.577 60.9686 244.403 60.792C244.142 60.5271 243.88 60.2678 243.615 60.013L243.366 59.7831L243.179 59.6074C243.05 59.4878 242.922 59.3646 242.791 59.2478C242.517 58.9994 242.239 58.7575 241.959 58.5212C241.837 58.4181 241.712 58.3197 241.589 58.2195L241.402 58.0668C241.31 57.9923 241.219 57.9141 241.127 57.8415C240.854 57.6272 240.581 57.4184 240.305 57.2151C240.106 57.0679 239.905 56.9281 239.704 56.7874L239.594 56.7092L239.491 56.6366C239.227 56.4563 238.963 56.2806 238.697 56.1114C238.434 55.944 238.17 55.7821 237.905 55.6267L237.722 55.5191L157.825 9.39128C157.626 9.27631 157.428 9.16592 157.231 9.05831C156.974 8.91943 156.717 8.787 156.464 8.66099C156.298 8.57913 156.135 8.50555 155.972 8.42921L155.851 8.37312L155.707 8.30414C155.455 8.19192 155.205 8.08613 154.957 7.9868C154.704 7.88471 154.452 7.78999 154.202 7.70261L154.074 7.6612L153.959 7.62348C153.79 7.56645 153.62 7.50853 153.453 7.45794C153.193 7.37884 152.934 7.30803 152.68 7.24457C152.556 7.2133 152.434 7.19029 152.312 7.1627L152.151 7.12682L151.913 7.07346C151.636 7.0192 151.364 6.97507 151.093 6.93828C150.926 6.91621 150.764 6.90423 150.599 6.88767L150.426 6.8702L150.26 6.85367C149.963 6.83344 149.669 6.82332 149.381 6.82515C149.253 6.82515 149.129 6.83803 149.003 6.84262C148.906 6.8463 148.808 6.84997 148.712 6.85641C148.612 6.86285 148.509 6.86192 148.41 6.8702C148.042 6.90423 147.683 6.95667 147.331 7.02658L147.312 7.0321L147.083 7.09556C146.722 7.17834 146.365 7.26571 146.023 7.38712L145.906 7.43494L145.736 7.50393C145.311 7.67132 144.899 7.85988 144.508 8.08798L136.14 12.9508C136.531 12.7236 136.944 12.5341 137.368 12.3667L137.538 12.2977C137.917 12.157 138.313 12.0503 138.716 11.9583L138.944 11.8958C139.397 11.8038 139.866 11.7495 140.344 11.7192C140.441 11.7128 140.538 11.7091 140.635 11.7054C141.099 11.6879 141.573 11.6934 142.058 11.733L142.231 11.7514C142.738 11.7992 143.255 11.8774 143.782 11.9896L143.944 12.0255C144.484 12.146 145.033 12.2986 145.592 12.4863L145.707 12.524C146.289 12.7236 146.882 12.9609 147.483 13.235L147.604 13.292C148.214 13.5762 148.832 13.8926 149.458 14.2541L229.354 60.3818C229.986 60.747 230.61 61.1461 231.226 61.5729L231.336 61.6502C231.91 62.0512 232.476 62.4789 233.035 62.9296" fill="url(#paint1_linear)"/>
<path d="M256.364 86.9859C256.355 86.686 256.341 86.3844 256.322 86.0809C256.303 85.7783 256.279 85.4756 256.249 85.1712C256.221 84.8668 256.187 84.5605 256.148 84.2542C256.108 83.9415 256.063 83.6288 256.014 83.3142C255.964 82.9997 255.91 82.6842 255.851 82.3678C255.789 82.0431 255.723 81.7184 255.652 81.3919C255.581 81.0654 255.505 80.7389 255.424 80.4124C255.341 80.0812 255.255 79.7501 255.163 79.419C255.071 79.0897 254.974 78.7595 254.874 78.4303C254.776 78.1074 254.671 77.7846 254.563 77.4627C254.457 77.1444 254.346 76.8262 254.231 76.5089C254.121 76.2026 254.006 75.8973 253.887 75.5919L245.519 80.4547C245.638 80.76 245.752 81.0654 245.863 81.3717C245.978 81.689 246.089 82.0072 246.196 82.3255C246.304 82.6474 246.407 82.9702 246.506 83.2931C246.607 83.6223 246.703 83.9525 246.795 84.2818C246.886 84.6129 246.973 84.944 247.056 85.2751C247.137 85.6017 247.213 85.9291 247.284 86.2556C247.355 86.5812 247.422 86.9068 247.483 87.2315C247.542 87.547 247.596 87.8624 247.647 88.177C247.695 88.4915 247.74 88.8052 247.779 89.117C247.819 89.4233 247.853 89.7286 247.882 90.0331C247.912 90.3384 247.935 90.6419 247.955 90.9436C247.973 91.2471 247.988 91.5488 247.997 91.8487C248.004 92.132 248.009 92.4134 248.008 92.693L247.465 284.399C247.462 285.109 247.427 285.791 247.366 286.451L247.348 286.628C247.287 287.232 247.201 287.814 247.093 288.373L247.049 288.595C246.937 289.136 246.802 289.655 246.647 290.151C246.617 290.244 246.586 290.334 246.555 290.425C246.399 290.892 246.227 291.34 246.032 291.764L245.973 291.906C245.745 292.389 245.494 292.843 245.221 293.268L245.103 293.433C244.875 293.771 244.634 294.089 244.38 294.388C244.286 294.498 244.188 294.601 244.091 294.705C243.866 294.946 243.633 295.172 243.39 295.383C243.289 295.472 243.189 295.563 243.086 295.646C242.741 295.922 242.383 296.179 242.004 296.401L250.372 291.537C250.751 291.316 251.108 291.059 251.454 290.784C251.558 290.7 251.656 290.61 251.757 290.52C252.001 290.309 252.234 290.083 252.459 289.843C252.556 289.738 252.654 289.635 252.748 289.525C253.002 289.226 253.244 288.908 253.471 288.571L253.589 288.405L253.615 288.368C253.871 287.967 254.107 287.54 254.321 287.088L254.341 287.044L254.4 286.898C254.531 286.614 254.658 286.326 254.77 286.024C254.825 285.875 254.871 285.717 254.923 285.563C254.954 285.471 254.985 285.38 255.015 285.287C255.041 285.203 255.072 285.124 255.097 285.039C255.189 284.729 255.271 284.411 255.346 284.084C255.372 283.97 255.393 283.849 255.417 283.734L255.462 283.509C255.483 283.395 255.509 283.285 255.53 283.169C255.58 282.876 255.625 282.578 255.662 282.275C255.684 282.108 255.699 281.935 255.716 281.764L255.735 281.588L255.756 281.375C255.779 281.086 255.798 280.792 255.811 280.493C255.823 280.196 255.831 279.895 255.832 279.589L255.832 279.536L256.376 87.8302C256.377 87.5506 256.372 87.2692 256.364 86.9859" fill="url(#paint2_linear)"/>
<path d="M229.354 60.3818C239.686 66.3474 248.042 80.8125 248.009 92.6939L247.465 284.399C247.431 296.271 239.021 301.064 228.688 295.099L148.792 248.97C138.461 243.006 130.104 228.532 130.138 216.659L130.681 24.9545C130.714 13.0731 139.126 8.28848 149.458 14.254L229.354 60.3818Z" fill="#444444"/>
<path d="M199.889 61.8039C201.14 62.5259 202.153 64.279 202.149 65.7166C202.144 67.1624 201.126 67.7437 199.874 67.0208L179.272 55.1255C178.02 54.4035 177.008 52.6505 177.013 51.2046C177.016 49.767 178.035 49.1867 179.285 49.9087L199.889 61.8039" fill="#7E7E7E"/>
<path d="M189.053 244.434C192.427 246.382 195.153 251.105 195.143 254.982C195.132 258.858 192.386 260.422 189.014 258.475C185.64 256.527 182.913 251.803 182.924 247.926C182.934 244.051 185.68 242.486 189.053 244.434Z" fill="#BABABA"/>
<path d="M239.804 101.731C240.843 102.33 241.681 103.784 241.678 104.976L241.223 265.159C241.22 266.352 240.376 266.833 239.337 266.233L138.808 208.193C137.77 207.593 136.931 206.141 136.935 204.947L137.389 44.7653C137.393 43.5715 138.236 43.0904 139.274 43.6901L239.804 101.731Z" fill="#FBFDFE"/>
<path d="M252.392 157.302C251.737 157.302 251.205 156.771 251.205 156.115V120.497C251.205 119.842 251.737 119.31 252.392 119.31C253.048 119.31 253.58 119.842 253.58 120.497V156.115C253.58 156.771 253.048 157.302 252.392 157.302Z" fill="#BABABA"/>
<path d="M252.392 201.627C251.737 201.627 251.205 201.095 251.205 200.44V164.821C251.205 164.166 251.737 163.634 252.392 163.634C253.048 163.634 253.58 164.166 253.58 164.821V200.44C253.58 201.095 253.048 201.627 252.392 201.627Z" fill="#BABABA"/>
<path d="M252.392 256.092C251.737 256.092 251.205 255.56 251.205 254.905V236.453C251.205 235.798 251.737 235.266 252.392 235.266C253.048 235.266 253.58 235.798 253.58 236.453V254.905C253.58 255.56 253.048 256.092 252.392 256.092" fill="#BABABA"/>
<path d="M188.366 112.942C193.509 115.912 197.676 123.082 197.726 129.012L197.727 129.158C197.512 129.243 193.411 130.879 188.195 127.971L188.013 127.868C183.934 125.514 180.595 120.845 179.404 119.042C179.1 118.582 178.944 118.321 178.937 118.308C178.953 112.35 183.174 109.945 188.366 112.942" fill="white"/>
<path d="M230.686 164.614C231.876 165.301 232.835 166.963 232.831 168.322L232.806 177.354C232.802 178.722 231.835 179.273 230.645 178.586L148.029 130.886C146.838 130.199 145.879 128.537 145.883 127.169L145.909 118.137C145.912 116.778 146.878 116.228 148.068 116.915L230.686 164.614Z" fill="#303030" fill-opacity="0.1"/>
<path d="M188.584 111.314C191.752 113.144 194.323 111.67 194.334 108.038C194.344 104.397 191.79 99.9738 188.621 98.1444C185.46 96.3187 182.883 97.7802 182.872 101.421C182.861 105.053 185.422 109.49 188.584 111.314ZM202.487 110.868C202.971 112.475 203.319 114.087 203.51 115.667C203.625 116.614 203.684 117.55 203.681 118.468C203.68 118.748 203.672 119.021 203.66 119.291L203.655 119.414C203.642 119.67 203.623 119.92 203.601 120.167L203.586 120.31C203.563 120.556 203.533 120.8 203.499 121.037C203.449 121.36 203.41 121.59 203.365 121.815C203.307 122.107 203.253 122.331 203.197 122.551L203.168 122.664C203.112 122.879 203.051 123.087 202.986 123.292L202.949 123.403C202.881 123.609 202.81 123.812 202.733 124.008C202.634 124.254 202.554 124.439 202.47 124.618C202.35 124.874 202.259 125.049 202.164 125.222L202.109 125.321C202.014 125.491 201.915 125.655 201.811 125.814L201.761 125.89C201.651 126.055 201.539 126.216 201.42 126.371C201.298 126.53 201.175 126.677 201.05 126.82L200.995 126.88C200.873 127.016 200.747 127.146 200.618 127.271L200.544 127.341C200.413 127.465 200.281 127.582 200.144 127.694L200.079 127.745C199.942 127.855 199.803 127.959 199.659 128.059C199.48 128.182 199.328 128.276 199.173 128.365L199.087 128.416C198.937 128.5 198.783 128.579 198.627 128.654L198.53 128.698C198.369 128.771 198.206 128.84 198.038 128.903C197.901 128.952 197.813 128.978 197.727 129.005C197.673 123.075 193.507 115.91 188.366 112.942C183.174 109.945 178.953 112.35 178.937 118.307C178.943 118.32 179.088 118.558 179.364 118.981C179.242 118.811 179.118 118.641 178.998 118.468C178.767 118.132 178.609 117.898 178.453 117.662L178.368 117.533C178.204 117.28 178.043 117.025 177.884 116.768L177.783 116.603C177.622 116.339 177.462 116.072 177.307 115.804C177.14 115.514 176.992 115.247 176.846 114.98L176.761 114.825C176.617 114.558 176.477 114.288 176.339 114.018L176.265 113.87C176.135 113.609 176.006 113.348 175.882 113.086C175.717 112.734 175.591 112.454 175.468 112.174L175.392 112.002C175.271 111.723 175.153 111.443 175.04 111.163C174.895 110.799 174.792 110.534 174.693 110.266L174.643 110.133C174.539 109.853 174.442 109.572 174.346 109.29L174.29 109.121C174.099 108.544 173.924 107.967 173.768 107.389L173.723 107.218C173.649 106.937 173.578 106.658 173.513 106.378L173.479 106.228C173.419 105.962 173.361 105.697 173.309 105.432C173.235 105.058 173.187 104.778 173.141 104.498L173.113 104.318C173.069 104.038 173.029 103.759 172.995 103.481C172.954 103.125 172.927 102.864 172.905 102.603L172.892 102.463C172.872 102.19 172.854 101.919 172.843 101.65L172.837 101.478C172.827 101.201 172.82 100.926 172.821 100.652C172.824 99.7338 172.887 98.8673 173.006 98.0552C173.206 96.7004 173.562 95.4955 174.053 94.4525C174.151 94.2437 174.255 94.0404 174.364 93.8445C176.872 89.3423 182.173 88.2965 188.297 91.833C193.794 95.0062 198.608 101.095 201.328 107.646C201.508 108.077 201.681 108.509 201.842 108.943C202.078 109.583 202.293 110.225 202.487 110.868" fill="url(#paint3_linear)"/>
<path d="M188.621 98.1445C191.789 99.9739 194.343 104.397 194.333 108.038C194.322 111.67 191.752 113.144 188.584 111.315C185.423 109.49 182.861 105.054 182.872 101.421C182.882 97.7803 185.459 96.3197 188.621 98.1445Z" fill="white"/>
<path d="M230.631 184.273C231.821 184.96 232.78 186.622 232.777 187.989L232.75 197.022C232.746 198.39 231.781 198.932 230.59 198.245L147.973 150.545C146.784 149.858 145.823 148.205 145.827 146.837L145.853 137.804C145.857 136.438 146.823 135.887 148.013 136.574L230.631 184.273" fill="#303030" fill-opacity="0.1"/>
<path d="M198.381 198.912C201.201 200.54 203.474 204.487 203.465 207.719L203.46 209.792C203.45 213.033 201.162 214.337 198.341 212.708L171.62 197.282C168.801 195.653 166.52 191.71 166.528 188.47L166.534 186.397C166.544 183.165 168.841 181.856 171.66 183.484L198.381 198.912Z" fill="url(#paint4_linear)"/>
<path opacity="0.5" d="M140.755 342.38C123.987 342.38 110.393 334.302 110.393 324.339C110.393 314.375 123.987 306.297 140.755 306.297C157.524 306.297 171.117 314.375 171.117 324.339C171.117 334.302 157.524 342.38 140.755 342.38Z" fill="url(#paint5_linear)"/>
<path d="M171.579 201.739C171.579 201.739 173.392 200.529 173.845 199.925C174.299 199.321 174.903 195.844 174.299 195.693C173.693 195.542 173.241 197.96 173.241 197.96C173.241 197.96 173.089 191.613 172.334 190.706C171.579 189.8 169.161 194.333 169.01 195.089C168.858 195.844 168.253 199.018 168.253 199.018C168.253 199.018 169.161 201.739 171.579 201.739" fill="#F68B5F"/>
<path d="M125.389 219.96C125.389 219.96 120.65 224.709 123.975 230.451C127.299 236.195 149.968 221.988 152.386 219.873C154.804 217.757 170.671 203.552 171.579 201.739C172.485 199.925 170.521 198.111 168.102 198.413C165.684 198.716 156.013 208.992 148.456 213.828C148.456 213.828 130.429 217.931 125.389 219.96" fill="black"/>
<path d="M128.165 320.453C128.165 320.453 127.775 323.313 128.295 324.484C128.815 325.526 130.896 326.304 132.327 325.264C133.757 324.225 136.227 321.623 136.227 321.623C136.227 321.623 140.389 319.413 140.779 318.243C141.169 317.072 139.739 316.032 138.568 316.292C137.398 316.552 134.017 318.632 132.456 318.632C130.896 318.632 128.685 319.022 128.165 320.453Z" fill="white"/>
<path d="M123.878 259.554C123.878 259.554 127.517 319.62 127.971 321.36C128.425 323.1 133.145 324.1 134.021 321.335C134.577 319.581 135.947 263.995 135.947 263.995L123.878 259.554" fill="url(#paint6_linear)"/>
<path d="M140.201 324.028C139.997 324.203 139.885 324.458 139.882 324.727C139.873 325.553 139.912 327.395 140.379 328.111C140.99 329.049 142.9 330.042 144.898 328.955C146.583 328.041 151.767 324.165 152.82 323.307C153.458 322.788 153.743 322.144 153.868 321.651C153.981 321.206 153.755 320.747 153.335 320.561C152.601 320.234 151.344 319.825 150.22 320.202C148.503 320.78 146.34 322.64 144.002 322.539C142.245 322.464 140.807 323.505 140.201 324.028" fill="white"/>
<path d="M148.234 260.202C147.971 257.706 144.984 256.895 142.233 257.745C136.983 257.462 128.856 257.686 128.57 261.759C128.148 267.792 130.977 272.097 133.705 275.024C135.721 277.188 137.062 281.327 137.626 283.344C138.104 299.275 139.16 321.739 139.818 323.889C140.88 327.353 146.105 327.197 146.341 323.824C147.399 312.426 148.234 260.202 148.234 260.202Z" fill="url(#paint7_linear)"/>
<path d="M148.247 262.001C147.631 265.083 138.846 266.624 133.709 265.803C128.573 264.98 123.041 262.461 123.223 256.504C123.223 256.504 124.199 242.265 123.809 239.729C123.419 237.192 122.443 232.706 122.443 228.025C122.443 223.344 125.388 219.878 125.388 219.878C125.388 219.878 128.265 216.59 137.306 218.44C137.306 218.44 144.672 220.044 148.062 225.489C148.062 225.489 150.403 231.472 149.622 243.955C148.842 256.439 148.247 262.001 148.247 262.001" fill="black"/>
<path d="M130.247 211.917C130.247 211.917 131.027 216.468 130.247 218.549C130.116 219.59 134.668 223.1 138.699 222.191C141.039 221.671 140.91 220.499 140.91 220.499C140.91 220.499 138.959 217.249 139.219 214.127C139.479 211.006 132.977 211.267 130.247 211.917" fill="#F36637"/>
<path d="M145.461 202.749C145.461 208.675 140.657 213.477 134.732 213.477C128.807 213.477 124.004 208.675 124.004 202.749C124.004 196.824 128.807 192.02 134.732 192.02C140.657 192.02 145.461 196.824 145.461 202.749Z" fill="#F68B5F"/>
<path d="M145.461 203.464C145.461 203.464 145.591 214.211 143.25 216.381C140.91 218.549 137.317 214.35 131.57 213.003C125.825 211.527 136.228 200.353 136.228 200.353L145.461 203.464Z" fill="#F68B5F"/>
<path d="M169.275 219.344C169.275 219.344 168.254 215.151 168.594 214.81C168.934 214.47 170.295 216.284 170.295 216.284C170.295 216.284 170.974 211.977 171.542 211.523C172.108 211.07 174.375 213.337 174.715 214.583C175.055 215.83 173.355 220.817 172.675 220.931C171.995 221.045 169.615 221.384 169.275 219.344" fill="#F68B5F"/>
<path d="M144.906 224.248C144.906 224.248 140.145 226.516 142.185 232.41C144.225 238.303 159.413 240.57 161.227 238.757C163.04 236.943 170.973 227.649 173.241 220.622C173.241 220.622 172.334 217.902 168.706 219.035C168.706 219.035 160.093 229.916 158.733 231.05C157.372 232.182 147.172 223.795 144.906 224.248Z" fill="black"/>
<path d="M125.552 194.574C125.552 194.574 128.895 190.487 134.653 190.116C140.41 189.745 143.196 191.601 145.425 191.415C147.653 191.231 149.697 193.088 148.954 195.874C148.211 198.659 146.54 201.445 142.825 201.445C139.11 201.445 138.182 200.888 138.182 200.888C138.182 200.888 141.153 202.189 141.525 204.789C141.897 207.389 141.897 211.289 141.897 211.289H140.968C140.968 211.289 140.224 207.017 138.738 207.017C137.253 207.017 137.253 211.661 138.553 212.403C139.853 213.147 139.853 213.147 139.853 213.147C139.853 213.147 137.359 217.767 136.006 217.964C134.653 218.161 130.195 214.818 130.195 214.818C130.195 214.818 122.766 211.289 122.023 205.532C121.28 199.774 125.552 194.574 125.552 194.574Z" fill="#802C33"/>
<path d="M79.1451 211.921C79.1451 211.921 83.3126 208.374 83.5462 209.008C83.7789 209.641 82.1224 211.403 82.1224 211.403C82.1224 211.403 87.7007 209.265 87.7651 209.99C87.8304 210.716 84.821 212.987 84.0254 213.525C83.2289 214.063 80.3877 214.833 80.3877 214.833C80.3877 214.833 78.8278 212.742 79.1451 211.921" fill="#F68B5F"/>
<path fill-rule="evenodd" clip-rule="evenodd" d="M61.2 247.352C59.2649 247.352 57.9229 245.814 57.9156 243.162L57.8438 217.626C58.0191 217.709 58.1908 217.786 58.3585 217.855C58.1909 217.786 58.0192 217.709 57.844 217.626L57.8229 210.376C57.8229 210.376 57.823 210.376 57.8231 210.376L57.8074 204.709C57.8349 204.694 57.8624 204.68 57.8897 204.667C57.9081 204.657 57.9263 204.648 57.9445 204.639C58.5782 204.321 59.1025 204.125 59.2827 204.089C59.3076 204.084 59.3425 204.081 59.3867 204.081C59.5613 204.081 59.8804 204.119 60.2824 204.183C59.8802 204.119 59.561 204.081 59.3863 204.081C59.3421 204.081 59.3072 204.084 59.2823 204.089C59.1021 204.125 58.5779 204.32 57.9442 204.639L57.9443 204.639C57.8992 204.662 57.8532 204.685 57.8072 204.709L57.8054 204.143L57.8052 204.143L57.75 184.566C57.7454 182.984 58.8629 181.042 60.2324 180.251L95.1373 160.099C96.0746 159.559 96.9621 159.302 97.7513 159.302C99.6865 159.302 101.028 160.842 101.036 163.493L101.202 222.089C101.207 223.67 100.089 225.613 98.7189 226.404L63.8149 246.556C62.8777 247.097 61.9901 247.352 61.2 247.352ZM80.3882 214.832C80.3882 214.832 78.8283 212.742 79.1456 211.92C79.1456 211.92 79.2533 211.828 79.4354 211.677L79.2178 211.684L79.4352 211.677C80.2924 210.964 82.7896 208.931 83.4141 208.931C83.4812 208.931 83.5272 208.955 83.5465 209.008C83.7792 209.641 82.1227 211.403 82.1227 211.403C82.1227 211.403 86.2009 209.84 87.4233 209.84C87.6312 209.84 87.7563 209.885 87.7655 209.99C87.8308 210.716 84.8213 212.987 84.0257 213.524C83.644 213.782 82.7932 214.093 82.0105 214.347L82.0105 214.347C81.1598 214.624 80.3882 214.832 80.3882 214.832ZM70.0435 211.893L70.0437 211.893C70.0436 211.893 70.0436 211.893 70.0435 211.893Z" fill="#FFC400" fill-opacity="0.5"/>
<path d="M65.5882 201.486C65.178 201.723 64.8478 202.295 64.8496 202.763L64.8579 205.876C64.8588 206.346 65.1918 206.535 65.602 206.3L94.0621 189.867C94.4723 189.631 94.8025 189.059 94.8007 188.588L94.7924 185.476C94.7915 185.007 94.4585 184.818 94.0483 185.055L65.5882 201.486Z" fill="white"/>
<path d="M65.6077 208.259C65.1975 208.495 64.8673 209.067 64.8691 209.539L64.8774 212.651C64.8783 213.122 65.2113 213.308 65.6215 213.071L94.0817 196.641C94.4919 196.403 94.8221 195.834 94.8202 195.363L94.8119 192.251C94.8101 191.78 94.4781 191.59 94.0679 191.827L65.6077 208.259Z" fill="white"/>
<path d="M76.717 213.301C75.7457 213.862 74.9621 215.223 74.9649 216.335L74.9667 217.049C74.9704 218.166 75.7586 218.615 76.7299 218.054L85.9348 212.74C86.9061 212.179 87.6925 210.821 87.6888 209.705L87.687 208.99C87.6842 207.876 86.8923 207.426 85.9211 207.988L76.717 213.301Z" fill="white"/>
</g>
<defs>
<linearGradient id="paint0_linear" x1="233.918" y1="289.182" x2="121.262" y2="289.182" gradientUnits="userSpaceOnUse">
<stop stop-color="#FF9900" stop-opacity="0.5"/>
<stop offset="1" stop-color="#FFC400" stop-opacity="0.5"/>
</linearGradient>
<linearGradient id="paint1_linear" x1="136.14" y1="49.7586" x2="256.375" y2="49.7586" gradientUnits="userSpaceOnUse">
<stop/>
<stop offset="0.939976" stop-color="#5C5C5C"/>
<stop offset="1" stop-color="#9A9A9A"/>
</linearGradient>
<linearGradient id="paint2_linear" x1="249.19" y1="306.501" x2="249.19" y2="99.834" gradientUnits="userSpaceOnUse">
<stop stop-color="#595959"/>
<stop offset="0.939976" stop-color="#595959"/>
<stop offset="1" stop-color="#828282"/>
</linearGradient>
<linearGradient id="paint3_linear" x1="189.238" y1="126.973" x2="188.445" y2="94.8126" gradientUnits="userSpaceOnUse">
<stop stop-color="#FF9900"/>
<stop offset="1" stop-color="#FFC400"/>
</linearGradient>
<linearGradient id="paint4_linear" x1="186.178" y1="211.825" x2="185.775" y2="186.748" gradientUnits="userSpaceOnUse">
<stop stop-color="#FF9900"/>
<stop offset="1" stop-color="#FFC400"/>
</linearGradient>
<linearGradient id="paint5_linear" x1="160.388" y1="337.05" x2="125.166" y2="311.125" gradientUnits="userSpaceOnUse">
<stop stop-color="#303030"/>
<stop offset="1"/>
</linearGradient>
<linearGradient id="paint6_linear" x1="134.548" y1="286.455" x2="123.925" y2="286.134" gradientUnits="userSpaceOnUse">
<stop stop-color="#2061AC"/>
<stop offset="1" stop-color="#003144"/>
</linearGradient>
<linearGradient id="paint7_linear" x1="145.95" y1="286.65" x2="128.625" y2="285.862" gradientUnits="userSpaceOnUse">
<stop stop-color="#2061AC"/>
<stop offset="1" stop-color="#003144"/>
</linearGradient>
<clipPath id="clip0">
<rect width="350" height="350" fill="white"/>
</clipPath>
</defs>
</svg>
