<svg width="308" height="476" viewBox="0 0 308 476" fill="none" xmlns="http://www.w3.org/2000/svg">
<path d="M171.811 216.153C202.273 162.209 179.789 139.452 179.789 139.452C173.31 149.173 141.021 219.029 141.021 219.029C141.021 219.029 159.798 288.291 166.935 319.105L217.247 281.731C184.145 248.487 171.811 216.153 171.811 216.153" fill="#E7B66C"/>
<path d="M142.666 209.159C168.572 139.452 136.609 134.682 136.609 134.682C131.758 145.308 114.881 218.586 114.881 218.586C114.881 218.586 140.535 284.803 152.482 314.092L194.984 273.164C158.477 246.21 142.666 209.159 142.666 209.159Z" fill="#F2C27B"/>
<path d="M229.785 227.888C229.065 231.378 198.776 228.074 162.133 220.512C125.491 212.948 96.3692 203.987 97.0892 200.498L100.92 181.942L233.616 209.332L229.785 227.888Z" fill="#FFC400"/>
<path d="M233.615 209.332C232.895 212.821 202.606 209.519 165.962 201.956C129.321 194.392 100.199 185.431 100.919 181.941C101.639 178.452 131.929 181.753 168.571 189.317C205.214 196.881 234.335 205.843 233.615 209.332" fill="#FF9900"/>
<path d="M211.629 199.808C209.665 199.231 207.591 198.643 205.424 198.048C206.336 197.879 206.859 197.609 206.936 197.236L206.923 196.991L205.368 170.381C205.728 164.395 181.427 144.963 187.655 114.793L187.741 114.369C188.997 108.285 197.999 104.429 204.148 103.201C204.148 101.131 170.004 96.1535 170.004 96.1535L158.825 82.4935C158.825 82.4935 160.256 65.7028 159.333 65.6468C159.279 65.6428 159.224 65.6414 159.171 65.6414C157.771 65.6414 156.596 66.7321 156.511 68.1481L155.816 79.6881L158.317 82.5108L158.48 82.5161C158.597 82.5161 158.712 82.5081 158.825 82.4935L170.004 96.1535C175.164 99.7175 181.903 106.821 180.647 112.905L180.559 113.328C176.324 133.843 161.096 144.208 151.14 150.516C148.84 142.552 144.585 138.545 141.273 136.56L142.235 133.899C144.983 126.297 154.453 121.501 163.204 119.752C167.412 118.911 170.737 115.684 171.604 111.48L171.691 111.056C172.56 106.852 170.785 102.573 167.253 100.135C159.909 95.0641 153.113 86.9094 153.6 78.8414L156.869 24.5935L244.543 42.6908L226.065 93.8001C223.317 101.401 213.848 106.197 205.096 107.947C200.888 108.788 197.565 112.015 196.696 116.217L196.609 116.641C195.741 120.845 197.515 125.124 201.047 127.564C208.391 132.635 215.187 140.789 214.7 148.856L211.629 199.808ZM161.148 32.8281C159.749 32.8281 158.575 33.9188 158.489 35.3348L156.967 60.5881C156.879 62.0588 157.999 63.3214 159.468 63.4108C159.523 63.4134 159.577 63.4148 159.631 63.4148C161.031 63.4161 162.205 62.3241 162.291 60.9094L163.812 35.6561C163.901 34.1855 162.781 32.9215 161.311 32.8335C161.256 32.8308 161.203 32.8281 161.148 32.8281Z" fill="#94C0E9"/>
<path d="M131.276 182.743C129.049 182.431 126.915 182.149 124.88 181.901L141.273 136.56C144.585 138.545 148.84 142.552 151.14 150.516C147.951 152.537 145.301 154.141 143.729 155.529L145.636 150.565C146.164 149.191 145.477 147.648 144.103 147.12C143.788 146.999 143.465 146.941 143.147 146.941C142.076 146.941 141.065 147.592 140.657 148.653L137.655 156.469C137.127 157.844 137.813 159.387 139.188 159.915C139.503 160.036 139.825 160.093 140.144 160.093C140.429 160.093 140.711 160.047 140.977 159.959L139.336 163.225C139.052 162.876 138.676 162.593 138.225 162.42C137.911 162.3 137.588 162.243 137.269 162.243C136.197 162.243 135.187 162.893 134.78 163.953L130.157 175.987C129.683 177.221 130.188 178.591 131.292 179.24L130.319 181.179L130.208 181.399C130.131 181.771 130.505 182.225 131.276 182.743" fill="#D5A762"/>
<path d="M207.058 204.024C199.818 204.024 184.391 201.877 166.733 198.232C142.521 193.235 123.281 187.313 123.757 185.008L124.879 181.901C126.914 182.149 129.049 182.431 131.275 182.743C135.275 185.428 149.947 189.825 167.71 193.492C182.446 196.533 195.43 198.272 202.13 198.272C203.506 198.272 204.617 198.199 205.423 198.048C207.59 198.643 209.665 199.231 211.629 199.808L211.43 203.105C211.302 203.729 209.743 204.024 207.058 204.024" fill="#FCD480"/>
<path d="M170.004 96.1535C175.164 99.7175 181.903 106.822 180.647 112.906L180.559 113.328C174.332 143.499 144.321 151.72 142.283 157.36L130.319 181.179L130.208 181.399C129.732 183.704 146.521 189.119 167.711 193.492C188.899 197.865 206.46 199.543 206.936 197.236L206.923 196.991L205.368 170.381C205.728 164.395 181.427 144.963 187.655 114.794L187.741 114.37C188.997 108.286 197.999 104.43 204.148 103.202C205.616 102.908 206 102.5 206 102.5L170.004 96.1535Z" fill="#283E86"/>
<path d="M193.778 97.4441C192.275 97.4441 191.057 96.2254 191.057 94.7228C191.057 93.2188 192.275 92.0001 193.778 92.0001C195.282 92.0001 196.501 93.2188 196.501 94.7228C196.501 96.2254 195.282 97.4441 193.778 97.4441Z" fill="#A7CEEF"/>
<path d="M161.15 181.941C159.647 181.941 158.429 180.723 158.429 179.219C158.429 177.716 159.647 176.497 161.15 176.497C162.654 176.497 163.873 177.716 163.873 179.219C163.873 180.723 162.654 181.941 161.15 181.941Z" fill="#354C97"/>
<path d="M186.569 106.918C185.701 106.918 185 106.215 185 105.348C185 104.482 185.701 103.778 186.569 103.778C187.436 103.778 188.14 104.482 188.14 105.348C188.14 106.215 187.436 106.918 186.569 106.918Z" fill="#354C97"/>
<path d="M152.644 163.864C151.777 163.864 151.073 163.162 151.073 162.294C151.073 161.427 151.777 160.724 152.644 160.724C153.511 160.724 154.215 161.427 154.215 162.294C154.215 163.162 153.511 163.864 152.644 163.864Z" fill="#354C97"/>
<path d="M190.502 165.144C188.927 165.144 187.651 163.868 187.651 162.293C187.651 160.72 188.927 159.444 190.502 159.444C192.075 159.444 193.351 160.72 193.351 162.293C193.351 162.809 193.215 163.293 192.975 163.711C192.207 163.837 191.567 164.349 191.262 165.041C191.019 165.108 190.765 165.144 190.502 165.144Z" fill="#354C97"/>
<path d="M193.352 168.246C192.092 168.246 191.069 167.224 191.069 165.963C191.069 165.636 191.137 165.324 191.263 165.042C191.568 164.35 192.208 163.838 192.976 163.711C193.099 163.69 193.224 163.68 193.352 163.68C194.613 163.68 195.636 164.702 195.636 165.963C195.636 167.224 194.613 168.246 193.352 168.246Z" fill="#354C97"/>
<path d="M195.662 188.632C194.318 188.632 193.229 187.544 193.229 186.199C193.229 184.856 194.318 183.766 195.662 183.766C197.006 183.766 198.095 184.856 198.095 186.199C198.095 187.544 197.006 188.632 195.662 188.632Z" fill="#354C97"/>
<path d="M206.5 102.5C206.296 103.585 198.984 103.389 188.672 101.447C178.36 99.5052 169.796 97.0852 170.001 95.9999C170.205 94.9147 179.1 95.5743 189.413 97.5164C199.725 99.4585 206.704 101.415 206.5 102.5Z" fill="#2E48A3"/>
<path d="M117.274 185.316C117.067 186.312 114.529 186.629 111.603 186.025C108.677 185.421 106.47 184.125 106.676 183.129L140.475 19.3828L151.073 21.5708L117.274 185.316Z" fill="#1E2A39"/>
<path d="M227.859 208.143C227.653 209.139 225.115 209.456 222.188 208.852C219.261 208.247 217.056 206.952 217.261 205.956L251.061 42.2107L261.66 44.3974L227.859 208.143" fill="#1E2A39"/>
<path d="M267.055 47.3372C266.335 50.8266 236.045 47.5239 199.403 39.9612C162.759 32.3972 133.639 23.4359 134.359 19.9465L138.188 1.39056L270.884 28.7812L267.055 47.3372" fill="#FFC400"/>
<path d="M270.884 28.7816C270.164 32.2709 239.875 28.9683 203.233 21.4056C166.589 13.8416 137.468 4.88024 138.188 1.39091C138.909 -2.09842 169.197 1.20425 205.841 8.76692C242.484 16.3309 271.605 25.2922 270.884 28.7816" fill="#FF9900"/>
<path d="M158.48 82.5161C158.426 82.5161 158.372 82.5134 158.317 82.5108C156.846 82.4214 155.726 81.1588 155.816 79.6881L156.51 68.1481C156.596 66.7321 157.77 65.6414 159.17 65.6414C159.224 65.6414 159.278 65.6428 159.333 65.6468C160.256 65.7028 161.041 66.2215 161.476 66.9641C159.949 67.3761 159.105 67.8228 159.084 68.2908H159.082L158.429 79.1321C158.362 80.2308 158.508 81.3575 158.825 82.4935C158.712 82.5081 158.597 82.5161 158.48 82.5161" fill="#A7CEEF"/>
<path d="M158.825 82.4932C158.508 81.3572 158.362 80.2305 158.429 79.1318L159.082 68.2905C159.082 68.2958 159.082 68.3025 159.082 68.3078C159.082 68.8105 160.034 69.2892 161.758 69.7265L161.14 80.0091C161.061 81.3065 160.068 82.3305 158.825 82.4932" fill="#A7CEEF"/>
<path d="M161.758 69.7266C160.034 69.2892 159.082 68.8105 159.082 68.3079C159.082 68.3025 159.082 68.2959 159.083 68.2906C159.105 67.8226 159.949 67.3759 161.475 66.9639C161.733 67.4039 161.867 67.9212 161.834 68.4692L161.758 69.7266Z" fill="#A7CEEF"/>
<path d="M159.631 63.4145C159.577 63.4145 159.523 63.4132 159.468 63.4105C157.999 63.3212 156.879 62.0586 156.967 60.5879L158.489 35.3346C158.575 33.9186 159.749 32.8279 161.148 32.8279C161.203 32.8279 161.256 32.8306 161.311 32.8332C162.781 32.9212 163.901 34.1852 163.812 35.6559L162.291 60.9092C162.205 62.3239 161.031 63.4159 159.631 63.4145" fill="#A7CEEF"/>
<path d="M131.291 179.24C130.187 178.591 129.682 177.222 130.157 175.987L134.779 163.954C135.186 162.894 136.197 162.243 137.269 162.243C137.587 162.243 137.91 162.3 138.225 162.42C138.675 162.594 139.051 162.876 139.335 163.226L131.291 179.24Z" fill="#E2838C"/>
<path d="M132.647 179.609C132.328 179.609 132.005 179.552 131.691 179.432C131.551 179.377 131.417 179.313 131.292 179.24L139.336 163.225C139.92 163.941 140.113 164.941 139.759 165.867L135.136 177.899C134.729 178.959 133.719 179.609 132.647 179.609" fill="#485DA3"/>
<path d="M140.144 160.093C139.825 160.093 139.503 160.036 139.188 159.915C137.813 159.387 137.127 157.844 137.655 156.469L140.657 148.653C141.065 147.592 142.076 146.941 143.147 146.941C143.465 146.941 143.788 146.999 144.103 147.12C145.477 147.648 146.164 149.191 145.636 150.565L143.729 155.529C142.992 156.18 142.491 156.784 142.283 157.36L140.977 159.959C140.711 160.047 140.429 160.093 140.144 160.093Z" fill="#E2838C"/>
<path d="M140.977 159.959L142.282 157.36C142.49 156.784 142.991 156.18 143.729 155.53L142.633 158.382C142.334 159.16 141.71 159.718 140.977 159.959Z" fill="#485DA3"/>
<path d="M271.259 475.156H271.256L255.595 441.075L271.259 475.156Z" fill="#6783CA"/>
<path d="M271.256 475.156H178.163C178.163 475.156 134.856 326.903 127.483 314.09C112.124 287.41 79.8426 227.97 78.1493 224.836L78.0826 224.716L78.0693 224.703C78.0693 224.703 78.0826 224.623 78.096 224.463C78.7626 219.77 88.776 148.223 92.056 137.316L92.0693 137.29C92.0693 137.29 121.669 143.196 108.176 203.663C108.176 203.663 132.003 232.01 168.523 266.676C177.563 275.236 192.349 272.276 197.403 260.89C202.816 248.676 207.841 235.636 209.509 226.21C213.656 202.756 240.923 205.89 240.923 205.89C239.843 229.143 211.909 346.009 211.909 346.009L271.256 475.156Z" fill="#F8CC8A"/>
<path d="M184.149 475.156H178.162C178.162 475.156 134.856 326.903 127.482 314.09C112.124 287.41 79.8424 227.97 78.149 224.836L78.0957 224.463C78.7624 219.77 88.7757 148.223 92.0557 137.316L92.0691 137.29L80.6024 223.383C93.4291 243.983 129.989 308.343 134.961 319.103C141.096 332.383 184.149 475.156 184.149 475.156Z" fill="#FFE4BB"/>
<path d="M169.724 475.156L143.146 398.951L253.733 404.214L279.116 475.156H169.724" fill="white"/>
<path d="M154.933 475.156L141.021 427.618L271.258 433.376L285.042 475.156H154.933Z" fill="#2D489F"/>
<path d="M141.021 427.618L154.933 475.156H160.042L144.266 427.76L141.021 427.618Z" fill="white"/>
<path d="M231.482 373.893L156.973 369.676L153.961 395.144L242.326 399.232L231.482 373.893" fill="#562626"/>
<path d="M137.001 388.671C139.857 400.424 150.201 408.003 160.105 405.596C170.007 403.189 175.721 391.709 172.863 379.956C170.007 368.2 159.663 360.623 149.761 363.028C139.857 365.436 134.143 376.915 137.001 388.671" fill="#EFDFDE"/>
<path d="M141.405 387.6C143.561 396.467 151.362 402.184 158.834 400.368C166.304 398.553 170.614 389.894 168.459 381.025C166.304 372.159 158.502 366.442 151.03 368.257C143.561 370.073 139.25 378.733 141.405 387.6Z" fill="#301917"/>
<path d="M67.9928 79.5239C64.8968 79.5239 62.3848 77.0133 62.3848 73.9159C62.3848 70.8199 64.8968 68.3079 67.9928 68.3079C71.0901 68.3079 73.6008 70.8199 73.6008 73.9159C73.6008 77.0133 71.0901 79.5239 67.9928 79.5239Z" fill="black" fill-opacity="0.05"/>
<path d="M67.9928 94.5107C64.8968 94.5107 62.3848 91.9988 62.3848 88.9028C62.3848 85.8054 64.8968 83.2948 67.9928 83.2948C71.0901 83.2948 73.6008 85.8054 73.6008 88.9028C73.6008 91.9988 71.0901 94.5107 67.9928 94.5107Z" fill="black" fill-opacity="0.07"/>
<path d="M67.9928 109.496C64.8968 109.496 62.3848 106.985 62.3848 103.888C62.3848 100.792 64.8968 98.2801 67.9928 98.2801C71.0901 98.2801 73.6008 100.792 73.6008 103.888C73.6008 106.985 71.0901 109.496 67.9928 109.496Z" fill="black" fill-opacity="0.1"/>
<path d="M271.023 281.232H278.894V273.361H271.023V281.232Z" fill="#FFC400" fill-opacity="0.35"/>
<path d="M283.154 302.427H299.337V286.242H283.154V302.427Z" fill="#FF9900" fill-opacity="0.2"/>
<path d="M126.286 141.624C138.978 143.824 152.173 146.648 165.642 150.104C186.958 155.572 206.913 162.099 224.722 169.208L225.217 167.969C207.349 160.837 187.342 154.295 165.973 148.812C152.471 145.348 139.242 142.516 126.514 140.309L126.286 141.624" fill="#283E86"/>
<path d="M243.785 256.883C240.003 256.881 236.093 256.799 232.07 256.631C232.162 256.191 232.255 255.745 232.347 255.308C236.274 255.468 240.091 255.549 243.785 255.549C243.833 255.549 243.879 255.549 243.929 255.549C270.178 255.549 290.247 251.419 299.949 243.616C303.193 241.016 305.279 238.043 306.143 234.677C306.442 233.515 306.589 232.325 306.589 231.105C306.59 226.961 304.881 222.453 301.578 217.72C298.279 212.989 293.402 208.049 287.15 203.052C274.674 193.076 256.735 182.875 235.013 173.483L235.154 172.799L235.411 172.203C268.202 186.378 292.462 202.345 302.673 216.957C306.071 221.833 307.921 226.587 307.922 231.105C307.922 232.432 307.762 233.736 307.435 235.009C306.489 238.701 304.194 241.927 300.783 244.657C297.37 247.389 292.837 249.648 287.334 251.455C276.329 255.067 261.427 256.88 243.785 256.883V256.883ZM200.431 253.852C197.899 253.524 195.334 253.168 192.75 252.787C192.387 252.28 192.031 251.779 191.681 251.279C194.811 251.751 197.906 252.183 200.961 252.576C200.786 253.001 200.609 253.427 200.431 253.852Z" fill="#94C0E9"/>
<path d="M192.75 252.787C184.885 251.624 176.791 250.212 168.526 248.548C168.049 247.997 167.579 247.449 167.115 246.901C175.497 248.617 183.706 250.076 191.681 251.279C192.031 251.779 192.387 252.28 192.75 252.787Z" fill="#94C0E9"/>
<path d="M168.527 248.548C160.685 246.969 152.695 245.167 144.596 243.132C143.993 242.519 143.396 241.908 142.807 241.304C151.031 243.405 159.151 245.269 167.116 246.901C167.58 247.449 168.049 247.997 168.527 248.548Z" fill="#94C0E9"/>
<path d="M235.013 173.483C234.969 173.464 234.928 173.446 234.884 173.427L235.154 172.799L235.013 173.483" fill="#FEF6FA"/>
<path d="M232.07 256.631C222.157 256.218 211.557 255.294 200.432 253.852C200.609 253.427 200.786 253.002 200.961 252.576C212.002 253.998 222.521 254.906 232.348 255.308C232.256 255.746 232.162 256.191 232.07 256.631V256.631ZM144.596 243.132C143.716 242.912 142.83 242.687 141.948 242.462C119.784 236.775 99.0851 229.947 80.7197 222.504L80.901 221.139C99.285 228.607 120.044 235.466 142.28 241.17C142.454 241.214 142.632 241.259 142.806 241.304C143.396 241.908 143.993 242.519 144.596 243.132Z" fill="#94C0E9"/>
<path d="M78.5013 221.597C72.664 219.192 67.0733 216.725 61.7533 214.213C39.1987 203.564 21.5546 192.138 10.9853 181.193C3.94795 173.896 0.00933333 166.789 0 160.165C0 158.839 0.159987 157.535 0.486654 156.263C1.43332 152.571 3.728 149.345 7.13867 146.614C10.552 143.881 15.0853 141.624 20.588 139.817C31.5933 136.205 46.4946 134.392 64.1373 134.39C79.5426 134.39 97.036 135.777 115.827 138.582L115.712 139.36L115.6 139.897C96.8773 137.103 79.4546 135.724 64.1373 135.724C64.0866 135.724 64.0413 135.724 63.992 135.724C37.744 135.724 17.6733 139.853 7.972 147.656C4.72934 150.256 2.64265 153.229 1.77865 156.593C1.47998 157.756 1.33333 158.947 1.33333 160.165C1.32267 166.232 5.01861 173.099 11.9439 180.268C18.8613 187.436 28.9626 194.889 41.584 202.198C52.28 208.393 64.7813 214.485 78.6933 220.234C78.624 220.725 78.56 221.18 78.5013 221.597" fill="#94C0E9"/>
<path d="M115.63 139.901C115.62 139.9 115.61 139.899 115.6 139.897L115.712 139.36L115.63 139.901" fill="#FEF6FA"/>
<path d="M80.7197 222.504C79.9757 222.203 79.2356 221.9 78.501 221.597C78.5596 221.18 78.6236 220.725 78.693 220.235C79.425 220.536 80.1623 220.839 80.901 221.139L80.7197 222.504Z" fill="#94C0E9"/>
<path d="M269.482 318.556C268.996 317.64 268.382 316.725 267.644 315.812C265.497 313.156 262.301 310.535 258.19 308.033C255.82 306.591 253.146 305.188 250.198 303.835C250.914 303.683 251.638 303.528 252.354 303.375C259.732 306.929 265.317 310.82 268.681 314.973C269.513 316.001 270.208 317.049 270.757 318.113C270.33 318.261 269.91 318.408 269.482 318.556Z" fill="#1E2A39" fill-opacity="0.35"/>
<path d="M214.473 351.587L213.889 350.316C232.017 348.026 247.049 344.121 257.106 339.096C262.629 336.343 266.635 333.252 268.842 329.991C270.105 328.127 270.787 326.216 270.877 324.246C270.883 324.099 270.887 323.954 270.887 323.808C270.886 322.059 270.414 320.306 269.482 318.556C269.91 318.408 270.33 318.262 270.757 318.114C271.713 319.97 272.221 321.875 272.221 323.808C272.221 323.974 272.217 324.139 272.209 324.304C272.109 326.551 271.322 328.711 269.945 330.739C268.569 332.77 266.607 334.676 264.129 336.464C259.173 340.04 252.142 343.155 243.469 345.74C235.177 348.209 225.381 350.191 214.473 351.587V351.587ZM250.198 303.835C242.919 300.495 233.962 297.459 223.731 294.88C223.775 294.687 223.818 294.492 223.862 294.298L224.042 293.584C234.895 296.319 244.341 299.566 251.93 303.172C252.071 303.239 252.213 303.307 252.354 303.375C251.638 303.528 250.914 303.683 250.198 303.835" fill="#1E2A39" fill-opacity="0.35"/>
<path d="M175.279 353.939C169.879 353.939 164.358 353.816 158.746 353.564C154.579 353.376 150.467 353.123 146.425 352.806C146.278 352.345 146.133 351.89 145.987 351.435C150.19 351.771 154.466 352.037 158.806 352.232C164.398 352.483 169.899 352.606 175.279 352.606C175.303 352.606 175.321 352.606 175.345 352.606C189.151 352.604 202.169 351.797 213.889 350.316L214.473 351.587C202.563 353.111 189.329 353.937 175.279 353.939V353.939ZM223.731 294.88C223.726 294.879 223.722 294.878 223.717 294.876L223.862 294.298C223.818 294.492 223.775 294.687 223.731 294.88" fill="#1E2A39" fill-opacity="0.35"/>
<path d="M140.982 352.339C108.514 349.301 80.9381 342.231 64.5141 333.292C62.0475 331.947 59.8314 330.56 57.8848 329.133C58.6008 329.097 59.3261 329.061 60.0421 329.024C65.3568 332.637 72.5675 336.04 81.2661 339.065C96.9608 344.527 117.498 348.765 140.541 350.959C140.687 351.415 140.835 351.877 140.982 352.339" fill="#1E2A39" fill-opacity="0.35"/>
<path d="M57.8846 329.133C54.7433 326.831 52.3074 324.423 50.674 321.923C49.166 319.609 48.3486 317.2 48.3486 314.752C48.3486 314.587 48.3527 314.421 48.3607 314.256C48.518 310.735 50.354 307.453 53.5033 304.5C56.658 301.54 61.1406 298.867 66.7433 296.492C77.89 291.772 93.482 288.243 111.851 286.303C111.967 286.513 112.085 286.725 112.202 286.936L112.271 287.599C98.4727 289.041 86.2513 291.387 76.3553 294.44C66.4593 297.489 58.8913 301.263 54.4167 305.472C51.4287 308.28 49.8313 311.237 49.6926 314.317C49.686 314.461 49.682 314.607 49.682 314.752C49.6833 316.9 50.3927 319.045 51.7913 321.195C53.19 323.34 55.2807 325.477 58.002 327.556C58.6474 328.048 59.3273 328.539 60.042 329.024C59.326 329.061 58.6006 329.097 57.8846 329.133" fill="#1E2A39" fill-opacity="0.35"/>
<path d="M146.425 352.806C144.597 352.663 142.782 352.507 140.982 352.339C140.836 351.878 140.688 351.415 140.541 350.959C142.342 351.13 144.157 351.29 145.988 351.435C146.133 351.89 146.278 352.345 146.425 352.806ZM112.202 286.936C112.085 286.726 111.968 286.514 111.852 286.303C111.945 286.294 112.04 286.283 112.133 286.274L112.202 286.936Z" fill="#1E2A39" fill-opacity="0.35"/>
<path d="M13.1152 267.354H59.9674V260.242H13.1152V267.354Z" fill="#FFC400"/>
<path d="M13.1152 282.908H49.2939V275.797H13.1152V282.908Z" fill="#FF9900"/>
</svg>
