<svg width="925" height="546" viewBox="0 0 925 546" fill="none" xmlns="http://www.w3.org/2000/svg">
<path opacity="0.899994" d="M204.31 240.948C204.31 240.948 205.069 197.591 202.533 188.719C199.999 179.847 181.999 159.055 173.381 147.142C164.759 135.23 165.266 128.639 159.689 120.776C154.113 112.915 150.815 108.608 148.533 103.031C146.253 97.451 139.915 91.115 145.49 88.579C151.069 86.0417 156.138 86.2963 163.746 94.6657C171.351 103.031 177.689 118.495 183.773 117.734C189.859 116.974 191.886 108.608 191.126 95.931C190.362 83.2564 185.546 78.435 184.534 70.3243C183.519 62.2123 179.719 37.6216 179.463 30.7763C179.209 23.931 181.239 17.847 184.789 17.3403C188.334 16.8323 192.395 19.6203 195.181 32.8057C197.97 45.987 201.482 56.887 204.414 70.8336C207.349 84.7763 210.645 84.015 212.421 82.2403C214.195 80.4643 212.674 62.9737 212.421 53.0843C212.17 43.199 213.359 16.0723 213.27 9.48034C213.182 2.891 216.477 -0.659657 221.039 0.101676C225.603 0.860342 227.631 2.63765 227.377 12.271C227.126 21.9043 230.929 48.019 230.929 54.607C230.929 61.199 228.647 82.495 234.733 83.003L236.506 82.7483C236.506 82.7483 238.534 57.903 238.534 50.2963C238.534 42.6937 235.746 15.819 240.057 12.0163C244.363 8.21231 249.945 8.21231 250.954 21.143C251.969 34.0723 253.493 44.9737 254.755 54.8603C256.027 64.747 255.015 72.6057 254.755 76.9163C254.506 81.2283 253.239 91.6216 257.799 92.1256C262.365 92.6363 265.659 73.115 267.943 64.4936C270.225 55.8763 271.746 36.3537 280.113 38.1297C288.474 39.903 282.646 63.479 281.126 74.891C279.605 86.2963 276.562 106.579 277.071 114.69C277.574 122.804 276.306 151.323 267.179 173.38C258.055 195.438 264.142 519.276 265.279 535.63H204.053L204.31 240.948Z" fill="black"/>
<path d="M133.318 185.747C130.203 186.266 128.818 187.478 128.993 194.052C129.165 200.627 126.57 218.45 126.57 222.946C126.57 227.444 128.125 241.978 123.973 242.326L122.763 242.151C122.763 242.151 121.378 225.195 121.378 220.004C121.378 214.815 123.282 196.475 120.339 193.879C117.401 191.284 113.591 191.284 112.903 200.108C112.21 208.931 111.169 216.371 110.307 223.118C109.439 229.864 110.131 235.23 110.307 238.171C110.478 241.114 111.343 248.207 108.23 248.55C105.115 248.899 102.866 235.578 101.309 229.692C99.7513 223.811 98.7126 210.49 93.0046 211.702C87.298 212.911 91.274 229 92.3127 236.788C93.3487 244.571 95.4273 258.415 95.078 263.95C94.7366 269.488 95.6007 288.951 101.83 304.004C105.047 311.783 105.493 374.552 105.066 434.944H144.81L144.735 350.118C144.735 350.118 144.219 320.527 145.949 314.472C147.678 308.418 159.961 294.227 165.845 286.098C171.727 277.967 171.381 273.468 175.187 268.103C178.993 262.739 181.245 259.799 182.801 255.992C184.357 252.186 188.683 247.86 184.878 246.131C181.07 244.399 177.61 244.571 172.418 250.284C167.229 255.992 162.903 266.547 158.751 266.027C154.597 265.51 153.215 259.799 153.731 251.147C154.253 242.498 157.542 239.207 158.231 233.672C158.923 228.136 161.518 211.354 161.691 206.682C161.867 202.011 160.479 197.858 158.058 197.512C155.638 197.166 152.867 199.07 150.967 208.067C149.063 217.063 146.666 224.502 144.665 234.02C142.662 243.536 140.413 243.016 139.199 241.803C137.99 240.592 139.026 228.658 139.199 221.908C139.371 215.16 138.561 196.646 138.622 192.148C138.675 188.054 136.817 185.678 134.131 185.678C133.867 185.678 133.597 185.702 133.318 185.747Z" fill="black"/>
<path d="M818.702 344.119C818.702 344.119 818.185 314.528 819.914 308.475C821.643 302.419 833.927 288.228 839.81 280.099C845.693 271.969 845.346 267.471 849.154 262.104C852.958 256.74 855.21 253.802 856.767 249.994C858.323 246.187 862.649 241.863 858.843 240.132C855.037 238.4 851.577 238.574 846.385 244.285C841.194 249.993 836.87 260.548 832.718 260.029C828.563 259.511 827.181 253.802 827.698 245.148C828.219 236.499 831.507 233.208 832.198 227.674C832.89 222.138 835.485 205.355 835.658 200.683C835.833 196.012 834.446 191.86 832.023 191.513C829.605 191.167 826.834 193.071 824.933 202.07C823.029 211.064 820.631 218.503 818.63 228.022C816.627 237.536 814.379 237.017 813.166 235.805C811.955 234.593 812.993 222.658 813.166 215.91C813.338 209.162 812.526 190.647 812.587 186.15C812.646 181.652 810.398 179.229 807.285 179.749C804.17 180.267 802.785 181.48 802.958 188.053C803.13 194.629 800.535 212.451 800.535 216.947C800.535 221.446 802.091 235.98 797.939 236.325L796.73 236.152C796.73 236.152 795.343 219.198 795.343 214.006C795.343 208.816 797.247 190.477 794.305 187.88C791.366 185.285 787.558 185.285 786.869 194.109C786.175 202.932 785.135 210.372 784.274 217.119C783.406 223.867 784.097 229.231 784.274 232.172C784.445 235.115 785.309 242.208 782.197 242.551C779.081 242.9 776.833 229.579 775.275 223.695C773.718 217.814 772.678 204.489 766.97 205.701C761.263 206.912 765.239 223.001 766.279 230.789C767.315 238.573 769.394 252.416 769.045 257.951C768.702 263.489 769.566 282.952 775.795 298.006C782.022 313.059 777.869 534.067 777.093 545.227H818.878L818.702 344.119Z" fill="black"/>
<path opacity="0.800003" d="M54.74 258.121C54.74 258.121 54.2226 228.531 55.952 222.477C57.6813 216.421 69.9653 202.231 75.848 194.101C81.7306 185.972 81.384 181.473 85.192 176.107C88.996 170.743 91.248 167.804 92.8053 163.996C94.3613 160.189 98.6866 155.865 94.8813 154.135C91.0746 152.403 87.6146 152.576 82.4226 158.288C77.232 163.996 72.908 174.551 68.756 174.032C64.6013 173.513 63.2186 167.804 63.736 159.151C64.2573 150.501 67.5453 147.211 68.236 141.676C68.928 136.14 71.5226 119.357 71.696 114.685C71.8706 110.015 70.484 105.863 68.0613 105.516C65.6426 105.169 62.872 107.073 60.9706 116.072C59.0666 125.067 56.6693 132.505 54.668 142.024C52.6653 151.539 50.4173 151.02 49.204 149.808C47.9933 148.596 49.0306 136.66 49.204 129.912C49.376 123.164 48.564 104.649 48.6253 100.152C48.684 95.6546 46.436 93.2319 43.3226 93.7519C40.208 94.2693 38.8226 95.4826 38.996 102.056C39.168 108.632 36.5733 126.453 36.5733 130.949C36.5733 135.448 38.1293 149.983 33.9773 150.328L32.768 150.155C32.768 150.155 31.3813 133.2 31.3813 128.008C31.3813 122.819 33.2853 104.48 30.3426 101.883C27.404 99.2879 23.596 99.2879 22.9066 108.112C22.2133 116.935 21.1733 124.375 20.312 131.121C19.444 137.869 20.1346 143.233 20.312 146.175C20.4826 149.117 21.3466 156.211 18.2346 156.553C15.1186 156.903 12.8706 143.581 11.3133 137.697C9.75598 131.816 8.71598 118.492 3.00798 119.704C-2.69868 120.915 1.27731 137.004 2.31731 144.792C3.35331 152.576 5.43198 166.419 5.08265 171.953C4.73998 177.492 5.60398 196.955 11.8333 212.008C18.06 227.061 13.9066 448.069 13.1306 459.229H54.916L54.74 258.121Z" fill="black"/>
<path opacity="0.800003" d="M308.021 337.992C308.021 337.992 308.539 308.402 306.809 302.348C305.08 296.292 292.796 282.102 286.913 273.972C281.031 265.843 281.377 261.344 277.569 255.978C273.765 250.614 271.513 247.675 269.956 243.867C268.4 240.06 264.075 235.736 267.88 234.006C271.687 232.274 275.147 232.447 280.339 238.159C285.529 243.867 289.853 254.422 294.005 253.903C298.16 253.384 299.543 247.675 299.025 239.022C298.504 230.372 295.216 227.082 294.525 221.547C293.833 216.011 291.239 199.228 291.065 194.556C290.891 189.886 292.277 185.734 294.7 185.387C297.119 185.04 299.889 186.944 301.791 195.943C303.695 204.938 306.092 212.376 308.093 221.895C310.096 231.41 312.344 230.891 313.557 229.679C314.768 228.467 313.731 216.531 313.557 209.783C313.385 203.035 314.197 184.52 314.136 180.023C314.077 175.526 316.325 173.103 319.439 173.623C322.553 174.14 323.939 175.354 323.765 181.927C323.593 188.503 326.188 206.324 326.188 210.82C326.188 215.319 324.632 229.854 328.784 230.199L329.993 230.026C329.993 230.026 331.38 213.071 331.38 207.879C331.38 202.69 329.476 184.351 332.419 181.754C335.357 179.159 339.165 179.159 339.855 187.983C340.548 196.806 341.588 204.246 342.449 210.992C343.317 217.74 342.627 223.104 342.449 226.046C342.279 228.988 341.415 236.082 344.527 236.424C347.643 236.774 349.891 223.452 351.448 217.568C353.005 211.687 354.045 198.363 359.753 199.575C365.46 200.786 361.484 216.875 360.444 224.663C359.408 232.447 357.329 246.29 357.679 251.824C358.021 257.363 357.157 276.826 350.928 291.879C344.701 306.932 348.855 527.94 349.631 539.1H307.845L308.021 337.992Z" fill="black"/>
<path opacity="0.699997" d="M396.016 247.998C396.016 247.998 396.533 218.407 394.804 212.354C393.075 206.298 380.791 192.107 374.908 183.978C369.025 175.848 369.372 171.35 365.564 165.983C361.76 160.619 359.508 157.68 357.951 153.872C356.395 150.066 352.069 145.742 355.875 144.011C359.681 142.279 363.141 142.452 368.333 148.164C373.524 153.872 377.848 164.427 382 163.908C386.155 163.39 387.537 157.68 387.02 149.027C386.499 140.378 383.211 137.087 382.52 131.552C381.828 126.016 379.233 109.234 379.06 104.562C378.885 99.8911 380.272 95.7391 382.695 95.3924C385.113 95.0457 387.884 96.9498 389.785 105.948C391.689 114.943 394.087 122.382 396.088 131.9C398.091 141.415 400.339 140.896 401.552 139.684C402.763 138.472 401.725 126.536 401.552 119.788C401.38 113.04 402.192 94.5258 402.131 90.0284C402.072 85.5311 404.32 83.1084 407.433 83.6284C410.548 84.1457 411.933 85.3591 411.76 91.9324C411.588 98.5084 414.183 116.33 414.183 120.826C414.183 125.324 412.627 139.859 416.779 140.204L417.988 140.031C417.988 140.031 419.375 123.076 419.375 117.884C419.375 112.695 417.471 94.3564 420.413 91.7591C423.352 89.1644 427.16 89.1644 427.849 97.9884C428.543 106.811 429.583 114.251 430.444 120.998C431.312 127.746 430.621 133.11 430.444 136.051C430.273 138.994 429.409 146.087 432.521 146.43C435.637 146.779 437.885 133.458 439.443 127.574C441 121.692 442.04 108.368 447.748 109.58C453.455 110.791 449.479 126.88 448.439 134.668C447.403 142.452 445.324 156.295 445.673 161.83C446.016 167.368 445.152 186.831 438.923 201.884C432.696 216.938 436.849 437.946 437.625 449.106H395.84L396.016 247.998Z" fill="black"/>
<path opacity="0.800003" d="M869.991 249.998C869.991 249.998 870.508 220.407 868.779 214.354C867.05 208.298 854.766 194.107 848.883 185.978C843 177.848 843.347 173.35 839.539 167.983C835.735 162.619 833.483 159.68 831.926 155.872C830.37 152.066 826.044 147.742 829.85 146.011C833.656 144.279 837.116 144.452 842.308 150.164C847.499 155.872 851.823 166.427 855.975 165.908C860.13 165.39 861.512 159.68 860.995 151.027C860.474 142.378 857.186 139.087 856.495 133.552C855.803 128.016 853.208 111.234 853.035 106.562C852.86 101.891 854.247 97.7391 856.67 97.3924C859.088 97.0457 861.859 98.9498 863.76 107.948C865.664 116.943 868.062 124.382 870.063 133.9C872.066 143.415 874.314 142.896 875.527 141.684C876.738 140.472 875.7 128.536 875.527 121.788C875.355 115.04 876.167 96.5258 876.106 92.0284C876.047 87.5311 878.295 85.1084 881.408 85.6284C884.523 86.1457 885.908 87.3591 885.735 93.9324C885.563 100.508 888.158 118.33 888.158 122.826C888.158 127.324 886.602 141.859 890.754 142.204L891.963 142.031C891.963 142.031 893.35 125.076 893.35 119.884C893.35 114.695 891.446 96.3564 894.388 93.7591C897.327 91.1644 901.135 91.1644 901.824 99.9884C902.518 108.811 903.558 116.251 904.419 122.998C905.287 129.746 904.596 135.11 904.419 138.051C904.248 140.994 903.384 148.087 906.496 148.43C909.612 148.779 911.86 135.458 913.418 129.574C914.975 123.692 916.015 110.368 921.723 111.58C927.43 112.791 923.454 128.88 922.414 136.668C921.378 144.452 919.299 158.295 919.648 163.83C919.991 169.368 919.127 188.831 912.898 203.884C906.671 218.938 910.824 439.946 911.6 451.106H869.815L869.991 249.998Z" fill="black"/>
<path d="M517.665 93.6284C514.55 94.147 513.165 95.359 513.339 101.932C513.511 108.508 510.915 126.33 510.915 130.826C510.915 135.324 512.471 149.858 508.319 150.204L507.11 150.032C507.11 150.032 505.725 133.076 505.725 127.884C505.725 122.696 507.627 104.356 504.685 101.759C501.746 99.1643 497.938 99.1644 497.249 107.988C496.557 116.811 495.515 124.251 494.654 130.998C493.786 137.746 494.477 143.11 494.654 146.051C494.825 148.994 495.689 156.087 492.577 156.431C489.462 156.779 487.213 143.458 485.655 137.574C484.098 131.692 483.058 118.368 477.35 119.58C471.643 120.791 475.619 136.882 476.659 144.668C477.695 152.452 479.774 166.294 479.425 171.83C479.082 177.37 479.947 196.831 486.177 211.884C491.278 224.218 489.411 374.786 488.143 434.944H529.238L529.082 257.998C529.082 257.998 528.565 228.406 530.294 222.354C532.023 216.298 544.307 202.107 550.19 193.978C556.073 185.848 555.727 181.35 559.534 175.983C563.338 170.619 565.59 167.68 567.147 163.872C568.703 160.066 573.029 155.742 569.225 154.011C565.417 152.279 561.958 152.452 556.765 158.164C551.575 163.872 547.25 174.428 543.098 173.908C538.942 173.39 537.562 167.68 538.078 159.027C538.599 150.378 541.889 147.087 542.578 141.552C543.27 136.016 545.866 119.234 546.038 114.562C546.213 109.891 544.826 105.739 542.403 105.392C539.985 105.047 537.214 106.95 535.313 115.948C533.41 124.943 531.011 132.383 529.01 141.899C527.009 151.415 524.759 150.896 523.546 149.684C522.335 148.474 523.373 136.536 523.546 129.788C523.718 123.04 522.907 104.527 522.969 100.03C523.021 95.9337 521.163 93.559 518.478 93.559C518.215 93.559 517.943 93.5817 517.665 93.6284" fill="black"/>
<path opacity="0.800003" d="M600.005 339.992C600.005 339.992 600.523 310.402 598.793 304.348C597.064 298.292 584.78 284.102 578.897 275.972C573.015 267.843 573.361 263.344 569.553 257.978C565.749 252.614 563.497 249.675 561.94 245.867C560.384 242.06 556.059 237.736 559.864 236.006C563.671 234.274 567.131 234.447 572.323 240.159C577.513 245.867 581.837 256.422 585.989 255.903C590.144 255.384 591.527 249.675 591.009 241.022C590.488 232.372 587.2 229.082 586.509 223.547C585.817 218.011 583.223 201.228 583.049 196.556C582.875 191.886 584.261 187.734 586.684 187.387C589.103 187.04 591.873 188.944 593.775 197.943C595.679 206.938 598.076 214.376 600.077 223.895C602.08 233.41 604.328 232.891 605.541 231.679C606.752 230.467 605.715 218.531 605.541 211.783C605.369 205.035 606.181 186.52 606.12 182.023C606.061 177.526 608.309 175.103 611.423 175.623C614.537 176.14 615.923 177.354 615.749 183.927C615.577 190.503 618.172 208.324 618.172 212.82C618.172 217.319 616.616 231.854 620.768 232.199L621.977 232.026C621.977 232.026 623.364 215.071 623.364 209.879C623.364 204.69 621.46 186.351 624.403 183.754C627.341 181.159 631.149 181.159 631.839 189.983C632.532 198.806 633.572 206.246 634.433 212.992C635.301 219.74 634.611 225.104 634.433 228.046C634.263 230.988 633.399 238.082 636.511 238.424C639.627 238.774 641.875 225.452 643.432 219.568C644.989 213.687 646.029 200.363 651.737 201.575C657.444 202.786 653.468 218.875 652.428 226.663C651.392 234.447 649.313 248.29 649.663 253.824C650.005 259.363 649.141 278.826 642.912 293.879C636.685 308.932 640.839 529.94 641.615 541.1H599.829L600.005 339.992Z" fill="black"/>
<path opacity="0.899994" d="M743.163 243.872C743.163 243.872 742.419 201.372 744.903 192.678C747.388 183.978 765.03 163.596 773.482 151.92C781.93 140.244 781.434 133.783 786.902 126.075C792.364 118.37 795.6 114.148 797.838 108.68C800.07 103.211 806.284 97.0016 800.819 94.5163C795.35 92.0283 790.38 92.2776 782.923 100.482C775.468 108.68 769.258 123.84 763.294 123.094C757.326 122.35 755.342 114.148 756.084 101.722C756.834 89.2976 761.556 84.5723 762.547 76.6216C763.54 68.6683 767.268 44.5643 767.516 37.8536C767.768 31.1456 765.776 25.1816 762.296 24.6843C758.822 24.1869 754.843 26.9203 752.111 39.8457C749.378 52.7643 745.934 63.4496 743.06 77.1216C740.184 90.7896 736.954 90.0416 735.211 88.3016C733.472 86.5616 734.962 69.4163 735.211 59.7243C735.458 50.0323 734.292 23.4403 734.38 16.9803C734.464 10.5217 731.236 7.04031 726.763 7.78698C722.29 8.53098 720.299 10.2723 720.551 19.715C720.796 29.159 717.07 54.7577 717.07 61.2137C717.07 67.6763 719.304 88.5523 713.34 89.0497L711.603 88.8003C711.603 88.8003 709.614 64.4456 709.614 56.9896C709.614 49.5363 712.348 23.195 708.12 19.467C703.899 15.7403 698.43 15.7403 697.44 28.4136C696.446 41.0856 694.951 51.7723 693.714 61.463C692.467 71.1523 693.459 78.8576 693.714 83.083C693.958 87.3096 695.2 97.4976 690.73 97.9896C686.254 98.4909 683.024 79.359 680.787 70.9056C678.552 62.459 677.059 43.3216 668.859 45.0629C660.663 46.8016 666.374 69.9109 667.867 81.0976C669.354 92.2776 672.34 112.159 671.84 120.11C671.347 128.066 672.59 156.019 681.535 177.64C690.478 199.262 684.514 516.698 683.399 532.728H743.414L743.163 243.872Z" fill="black"/>
</svg>
