<svg width="277" height="127" viewBox="0 0 277 127" fill="none" xmlns="http://www.w3.org/2000/svg">
<path fill-rule="evenodd" clip-rule="evenodd" d="M251.767 12.4086V48.7453C256.023 50.1641 260.279 48.9818 261.619 46.1442C264.142 40.3114 264.142 29.1188 263.826 23.7589C263.196 12.3298 257.994 10.1228 251.767 12.4086ZM245.303 58.9133C243.333 58.9133 241.362 58.9921 239.471 59.071V1.76773C241.3 1.70774 243.187 1.48798 245.252 1.2474C248.614 0.855745 252.45 0.408927 257.284 0.506586C264.142 0.585407 271.078 3.73827 274.152 10.3593C277.935 18.4779 277.857 39.9962 274.467 48.1936C270.447 58.1251 264.22 60.0168 254.053 59.3862L253.614 59.3516C250.78 59.1272 248.077 58.9133 245.303 58.9133ZM233.886 24.384C233.097 34.079 229.629 38.7295 224.348 40.6212L233.886 59.1443H220.407L211.973 41.4882H210.633V59.1443H198.337V1.84102C199.806 1.80518 202.188 1.54122 204.69 1.26399C207.69 0.93148 210.863 0.579877 212.84 0.579877C216.545 0.579877 220.88 0.737517 224.664 2.70806C230.89 5.86091 234.28 12.4819 233.886 24.384ZM210.633 11.9302V32.1085C218.2 34.946 221.589 28.798 221.589 21.704C221.589 16.8171 219.855 11.5361 214.653 11.5361C213.313 11.5361 211.816 11.6937 210.633 11.9302ZM26.9189 47.9516V59.1443H0.513672V1.84102H12.9675V47.9516H26.9189ZM57.9924 59.1443L56.6524 48.2669H45.2233L44.041 59.1443H30.6413L40.8093 1.84102H60.83L70.9979 59.1443H57.9924ZM55.2336 37.8624L51.9231 12.7184H49.9526L46.7997 37.8624H55.2336ZM87.6287 59.1443V31.0838L100.082 59.1443H110.172V1.84102H98.0331V29.9803L85.9734 1.84102H75.3325V59.1443H87.6287ZM129.519 68.94V40.6212L114.307 1.84102H128.258L135.983 26.7486L143.549 1.84102H157.58L142.209 40.6212V68.94H129.519ZM179.657 48.2669L180.997 59.1443H194.003L183.835 1.84102H163.814L153.646 59.1443H167.046L168.228 48.2669H179.657ZM174.928 12.7184L178.238 37.8624H169.804L172.957 12.7184H174.928Z" fill="#2BA77A"/>
<path d="M129.528 40.6045H142.218L136.924 26.7833L128.267 1.82434H114.315L129.528 40.6045Z" fill="#1AC084"/>
<path fill-rule="evenodd" clip-rule="evenodd" d="M179.997 63.081H91.4998V126.135H179.997V63.081ZM130.77 65.7083C129.167 65.7083 127.867 67.0084 127.867 68.6121C127.867 70.2158 129.167 71.5159 130.77 71.5159H140.588C142.192 71.5159 143.492 70.2158 143.492 68.6121C143.492 67.0084 142.192 65.7083 140.588 65.7083H130.77Z" fill="#2BA77A"/>
<rect x="95.2332" y="74.0049" width="80.0623" height="48.3969" fill="#1AC084"/>
<circle cx="117.574" cy="91.2251" r="8.09393" fill="#2BA77A"/>
<path fill-rule="evenodd" clip-rule="evenodd" d="M134.383 115.922H100.764C100.876 106.733 108.359 99.319 117.574 99.319C126.789 99.319 134.272 106.733 134.383 115.922Z" fill="#2BA77A"/>
<rect x="142.662" y="86.4498" width="27.2405" height="1.52105" rx="0.760523" fill="#2BA77A"/>
<rect x="142.662" y="91.0129" width="27.2405" height="1.52105" rx="0.760523" fill="#2BA77A"/>
<rect x="142.662" y="95.4378" width="27.2405" height="1.52105" rx="0.760523" fill="#2BA77A"/>
<rect x="142.662" y="100.001" width="27.2405" height="1.65932" rx="0.829661" fill="#2BA77A"/>
<rect x="142.662" y="104.979" width="27.2405" height="1.65932" rx="0.829661" fill="#2BA77A"/>
<rect x="142.662" y="109.957" width="27.2405" height="1.65932" rx="0.829661" fill="#2BA77A"/>
</svg>
