<svg width="277" height="126" viewBox="0 0 277 126" fill="none" xmlns="http://www.w3.org/2000/svg">
<path fill-rule="evenodd" clip-rule="evenodd" d="M179.483 64.588C179.483 63.4834 178.588 62.588 177.483 62.588H92.9861C91.8815 62.588 90.9861 63.4834 90.9861 64.588V123.642C90.9861 124.747 91.8815 125.642 92.9861 125.642H177.483C178.588 125.642 179.483 124.747 179.483 123.642V64.588ZM130.257 65.2153C128.653 65.2153 127.353 66.5154 127.353 68.1191C127.353 69.7229 128.653 71.0229 130.257 71.0229H140.074C141.678 71.0229 142.978 69.7229 142.978 68.1191C142.978 66.5154 141.678 65.2153 140.074 65.2153H130.257Z" fill="#4E4F62"/>
<rect x="94.7195" y="73.5119" width="80.0623" height="48.3969" rx="2" fill="#797A90"/>
<path fill-rule="evenodd" clip-rule="evenodd" d="M117.084 98.826C121.543 98.8131 125.154 95.1943 125.154 90.7321C125.154 86.262 121.53 82.6382 117.06 82.6382C112.59 82.6382 108.966 86.262 108.966 90.7321C108.966 95.1943 112.577 98.8131 117.036 98.826C107.832 98.8388 100.362 106.248 100.251 115.429H133.869C133.758 106.248 126.288 98.8389 117.084 98.826Z" fill="#4E4F62"/>
<rect x="142.148" y="85.9568" width="27.2405" height="1.52105" rx="0.760523" fill="#4E4F62"/>
<rect x="142.148" y="90.52" width="27.2405" height="1.52105" rx="0.760523" fill="#4E4F62"/>
<rect x="142.148" y="94.9448" width="27.2405" height="1.52105" rx="0.760523" fill="#4E4F62"/>
<rect x="142.148" y="99.5079" width="27.2405" height="1.65932" rx="0.829661" fill="#4E4F62"/>
<rect x="142.148" y="104.486" width="27.2405" height="1.65932" rx="0.829661" fill="#4E4F62"/>
<rect x="142.148" y="109.464" width="27.2405" height="1.65932" rx="0.829661" fill="#4E4F62"/>
<path d="M129.006 66.447V40.5712C129.006 40.2794 129.069 39.9911 129.193 39.7266L135.469 26.2556L142.605 2.76666C142.861 1.92404 143.638 1.34802 144.519 1.34802H154.122C155.534 1.34802 156.502 2.77206 155.981 4.08493L141.837 39.7732C141.744 40.0077 141.696 40.2578 141.696 40.5101V66.447C141.696 67.5516 140.8 68.447 139.696 68.447H131.006C129.901 68.447 129.006 67.5516 129.006 66.447Z" fill="#4E4F62"/>
<path fill-rule="evenodd" clip-rule="evenodd" d="M252.585 11.4925C251.774 11.7081 251.253 12.4732 251.253 13.312V46.8108C251.253 47.6717 251.802 48.4535 252.645 48.6256C256.405 49.3929 259.912 48.1786 261.106 45.6512C263.628 39.8185 263.628 28.6258 263.313 23.2659C262.728 12.6623 258.208 9.99674 252.585 11.4925ZM244.79 58.4203C243.533 58.4203 242.276 58.4524 241.04 58.496C239.904 58.5362 238.957 57.6301 238.957 56.4929V3.21025C238.957 2.13119 239.813 1.24829 240.889 1.16026C242.118 1.05961 243.39 0.91145 244.738 0.754424C248.101 0.362764 251.937 -0.0840536 256.771 0.0136054C263.628 0.0924259 270.564 3.24529 273.638 9.86629C277.422 17.9849 277.343 39.5032 273.954 47.7006C269.934 57.6321 263.707 59.5238 253.539 58.8933L253.101 58.8586C250.266 58.6342 247.563 58.4203 244.79 58.4203ZM233.372 23.891C232.692 32.2519 230.019 36.861 225.91 39.1846C224.857 39.7794 224.326 41.0824 224.879 42.1571L231.871 55.7357C232.556 57.0668 231.59 58.6513 230.093 58.6513H221.155C220.384 58.6513 219.682 58.2086 219.35 57.5133L211.683 41.4628C211.546 41.1771 211.258 40.9953 210.941 40.9953V40.9953C210.488 40.9953 210.12 41.3632 210.12 41.817V56.6513C210.12 57.7558 209.224 58.6513 208.12 58.6513H199.823C198.719 58.6513 197.823 57.7558 197.823 56.6513V3.29985C197.823 2.21428 198.689 1.31979 199.771 1.22701C201.057 1.11665 202.593 0.946489 204.176 0.771009C207.177 0.438499 210.349 0.0868957 212.327 0.0868957C216.031 0.0868957 220.366 0.244536 224.15 2.21508C230.377 5.36793 233.766 11.9889 233.372 23.891ZM211.739 11.187C210.792 11.2956 210.12 12.1234 210.12 13.0768V30.2295C210.12 31.0632 210.634 31.8283 211.442 32.0323C218.083 33.7087 221.076 27.8775 221.076 21.2111C221.076 16.3241 219.342 11.0431 214.14 11.0431C213.362 11.0431 212.531 11.0962 211.739 11.187ZM24.4052 47.4586C25.5098 47.4586 26.4052 48.354 26.4052 49.4586V56.6513C26.4052 57.7558 25.5098 58.6513 24.4052 58.6513H2C0.895431 58.6513 0 57.7558 0 56.6513V3.34803C0 2.24347 0.895431 1.34803 2 1.34803H10.4538C11.5584 1.34803 12.4538 2.24347 12.4538 3.34804V45.4586C12.4538 46.5632 13.3492 47.4586 14.4538 47.4586H24.4052ZM59.2475 58.6513C58.2375 58.6513 57.386 57.8982 57.2625 56.8958L56.355 49.5294C56.2315 48.5269 55.38 47.7739 54.37 47.7739H46.504C45.4831 47.7739 44.6261 48.5428 44.5157 49.5578L43.7212 56.8674C43.6109 57.8823 42.7539 58.6513 41.7329 58.6513H32.5138C31.2694 58.6513 30.3271 57.5271 30.5446 56.3019L40.0028 2.99861C40.1722 2.04375 41.0022 1.34803 41.972 1.34803H58.6399C59.6097 1.34803 60.4397 2.04375 60.6092 2.99861L70.0674 56.3019C70.2848 57.5271 69.3425 58.6513 68.0981 58.6513H59.2475ZM52.4394 37.3695C53.6476 37.3695 54.58 36.3063 54.4223 35.1084L51.5377 13.1992C51.4643 12.642 50.9893 12.2254 50.4273 12.2254V12.2254C49.8626 12.2254 49.3862 12.6458 49.316 13.2061L46.5681 35.1206C46.4183 36.3146 47.3492 37.3695 48.5525 37.3695H52.4394ZM85.115 58.6513C86.2196 58.6513 87.115 57.7558 87.115 56.6513V40.0274C87.115 37.8666 90.0665 37.2411 90.943 39.216L99.0412 57.4626C99.362 58.1854 100.079 58.6513 100.869 58.6513H107.658C108.763 58.6513 109.658 57.7558 109.658 56.6513V3.34803C109.658 2.24347 108.763 1.34803 107.658 1.34803H99.5194C98.4149 1.34803 97.5194 2.24346 97.5194 3.34803V19.7435C97.5194 21.9184 94.5379 22.5304 93.6811 20.5313L85.9792 2.5602C85.6641 1.82483 84.941 1.34803 84.1409 1.34803H76.8188C75.7143 1.34803 74.8188 2.24347 74.8188 3.34803V56.6513C74.8188 57.7558 75.7143 58.6513 76.8188 58.6513H85.115ZM177.375 47.7739C178.385 47.7739 179.236 48.5269 179.36 49.5294L180.267 56.8958C180.391 57.8982 181.242 58.6513 182.252 58.6513H191.103C192.347 58.6513 193.289 57.5271 193.072 56.3019L183.614 2.99861C183.444 2.04375 182.614 1.34803 181.645 1.34803H164.977C164.007 1.34803 163.177 2.04375 163.007 2.99861L153.549 56.3019C153.332 57.5271 154.274 58.6513 155.518 58.6513H164.738C165.758 58.6513 166.616 57.8823 166.726 56.8674L167.52 49.5578C167.631 48.5428 168.488 47.7739 169.509 47.7739H177.375ZM173.432 12.2254C173.994 12.2254 174.469 12.642 174.542 13.1992L177.427 35.1084C177.585 36.3063 176.652 37.3695 175.444 37.3695H171.557C170.354 37.3695 169.423 36.3146 169.573 35.1206L172.321 13.2061C172.391 12.6458 172.867 12.2254 173.432 12.2254V12.2254Z" fill="#4E4F62"/>
<path d="M128.516 38.8419C128.817 39.6078 129.555 40.1115 130.378 40.1115H138.797C140.199 40.1115 141.166 38.7057 140.664 37.3961L136.41 26.2903L128.22 2.67597C127.94 1.87106 127.182 1.33136 126.33 1.33136H116.735C115.325 1.33136 114.358 2.74983 114.873 4.06173L128.516 38.8419Z" fill="#797A90"/>
<path d="M129.014 40.1115H141.705L136.41 26.2903L128 37.5L129.014 40.1115Z" fill="#797A90"/>
</svg>
