<svg width="277" height="89" viewBox="0 0 277 89" fill="none" xmlns="http://www.w3.org/2000/svg">
<path fill-rule="evenodd" clip-rule="evenodd" d="M151 66H120V88.0875H151V66ZM133.756 66.9203C133.195 66.9203 132.739 67.3757 132.739 67.9375C132.739 68.4993 133.195 68.9547 133.756 68.9547H137.195C137.757 68.9547 138.213 68.4993 138.213 67.9375C138.213 67.3757 137.757 66.9203 137.195 66.9203H133.756Z" fill="#2BA77A"/>
<rect x="123.161" y="70.3983" width="24.9062" height="15.0556" fill="#1AC084"/>
<circle cx="130.111" cy="75.7553" r="2.5179" fill="#2BA77A"/>
<path fill-rule="evenodd" clip-rule="evenodd" d="M135.34 83.4381H124.882C124.916 80.5796 127.244 78.2731 130.111 78.2731C132.978 78.2731 135.305 80.5796 135.34 83.4381Z" fill="#2BA77A"/>
<rect x="137.916" y="74.2697" width="8.47412" height="0.473174" rx="0.236587" fill="#2BA77A"/>
<rect x="137.916" y="75.6892" width="8.47412" height="0.473174" rx="0.236587" fill="#2BA77A"/>
<rect x="137.916" y="77.0657" width="8.47412" height="0.473174" rx="0.236587" fill="#2BA77A"/>
<rect x="137.916" y="78.4853" width="8.47412" height="0.51619" rx="0.258095" fill="#2BA77A"/>
<rect x="137.916" y="80.0339" width="8.47412" height="0.51619" rx="0.258095" fill="#2BA77A"/>
<rect x="137.916" y="81.5824" width="8.47412" height="0.51619" rx="0.258095" fill="#2BA77A"/>
<path d="M133 40L119 1H122.5L135.5 34L147 1H152.5L138 40V58V68H133V58V40Z" fill="#2BA77A"/>
<path fill-rule="evenodd" clip-rule="evenodd" d="M251.253 11.9157V48.2524C255.509 49.6711 259.766 48.4888 261.106 45.6512C263.628 39.8185 263.628 28.6258 263.313 23.2659C262.682 11.8368 257.48 9.62983 251.253 11.9157ZM244.79 58.4203C242.819 58.4203 240.849 58.4991 238.957 58.578V1.27475C240.786 1.21476 242.673 0.994999 244.738 0.754424C248.101 0.362764 251.937 -0.0840536 256.771 0.0136054C263.628 0.0924259 270.564 3.24529 273.638 9.86629C277.422 17.9849 277.343 39.5032 273.954 47.7006C269.934 57.6321 263.707 59.5238 253.539 58.8933L253.101 58.8586C250.266 58.6342 247.563 58.4203 244.79 58.4203ZM233.372 23.891C232.584 33.586 229.116 38.2365 223.835 40.1282L233.372 58.6513H219.893L211.46 40.9953H210.12V58.6513H197.823V1.34803C199.293 1.3122 201.675 1.04824 204.176 0.771009C207.177 0.438499 210.349 0.0868957 212.327 0.0868957C216.031 0.0868957 220.366 0.244536 224.15 2.21508C230.377 5.36793 233.766 11.9889 233.372 23.891ZM210.12 11.4372V31.6155C217.686 34.4531 221.076 28.305 221.076 21.2111C221.076 16.3241 219.342 11.0431 214.14 11.0431C212.8 11.0431 211.302 11.2007 210.12 11.4372ZM26.4052 47.4586V58.6513H0V1.34803H12.4538V47.4586H26.4052ZM57.4787 58.6513L56.1388 47.7739H44.7096L43.5273 58.6513H30.1277L40.2956 1.34803H60.3163L70.4843 58.6513H57.4787ZM54.72 37.3695L51.4095 12.2254H49.4389L46.2861 37.3695H54.72ZM87.115 58.6513V30.5908L99.5688 58.6513H109.658V1.34803H97.5194V29.4873L85.4597 1.34803H74.8188V58.6513H87.115ZM179.143 47.7739L180.483 58.6513H193.489L183.321 1.34803H163.3L153.132 58.6513H166.532L167.714 47.7739H179.143ZM174.414 12.2254L177.725 37.3695H169.291L172.444 12.2254H174.414Z" fill="#2BA77A"/>
<path d="M133 40H138L134 29.5L124 1H119L133 40Z" fill="#1AC084"/>
</svg>
