<svg width="277" height="125" viewBox="0 0 277 125" fill="none" xmlns="http://www.w3.org/2000/svg">
<path fill-rule="evenodd" clip-rule="evenodd" d="M100.986 61.588C95.4632 61.588 90.9861 66.0652 90.9861 71.588V114.642C90.9861 120.165 95.4632 124.642 100.986 124.642H169.483C175.006 124.642 179.483 120.165 179.483 114.642V71.588C179.483 66.0652 175.006 61.588 169.483 61.588H100.986ZM130.257 64.2153C128.653 64.2153 127.353 65.5154 127.353 67.1191C127.353 68.7229 128.653 70.0229 130.257 70.0229H140.074C141.678 70.0229 142.978 68.7229 142.978 67.1191C142.978 65.5154 141.678 64.2153 140.074 64.2153H130.257Z" fill="#FF9900"/>
<rect x="95" y="72" width="81" height="49" rx="7" fill="#FCCD32"/>
<circle cx="115.294" cy="89.4012" r="6.40116" fill="#FF9900"/>
<path fill-rule="evenodd" clip-rule="evenodd" d="M124.804 99.8073C128.697 103.792 124.036 108.933 118.466 108.933H112.122C106.552 108.933 101.891 103.792 105.783 99.8073C108.197 97.3362 111.566 95.8023 115.294 95.8023C119.021 95.8023 122.39 97.3362 124.804 99.8073Z" fill="#FF9900"/>
<rect x="135.234" y="85.9329" width="32" height="5" rx="2.5" fill="#FF9900"/>
<rect x="135.234" y="93.9329" width="32" height="5" rx="2.5" fill="#FF9900"/>
<rect x="135.234" y="101.933" width="18" height="5" rx="2.5" fill="#FF9900"/>
<path d="M129.006 67.447V39.1282L113.793 0.348022H127.744L135.469 25.2556L143.036 0.348022H157.066L141.696 39.1282V67.447H129.006Z" fill="#FF9900"/>
<path fill-rule="evenodd" clip-rule="evenodd" d="M251.253 11.9157V48.2524C255.509 49.6711 259.766 48.4888 261.106 45.6512C263.628 39.8185 263.628 28.6258 263.313 23.2659C262.682 11.8368 257.48 9.62983 251.253 11.9157ZM244.79 58.4203C242.819 58.4203 240.849 58.4991 238.957 58.578V1.27475C240.786 1.21476 242.673 0.994999 244.738 0.754424C248.101 0.362764 251.937 -0.0840536 256.771 0.0136054C263.628 0.0924259 270.564 3.24529 273.638 9.86629C277.422 17.9849 277.343 39.5032 273.954 47.7006C269.934 57.6321 263.707 59.5238 253.539 58.8933L253.101 58.8586C250.266 58.6342 247.563 58.4203 244.79 58.4203ZM233.372 23.891C232.584 33.586 229.116 38.2365 223.835 40.1282L233.372 58.6513H219.893L211.46 40.9953H210.12V58.6513H197.823V1.34803C199.293 1.3122 201.675 1.04824 204.176 0.771009C207.177 0.438499 210.349 0.0868957 212.327 0.0868957C216.031 0.0868957 220.366 0.244536 224.15 2.21508C230.377 5.36793 233.766 11.9889 233.372 23.891ZM210.12 11.4372V31.6155C217.686 34.4531 221.076 28.305 221.076 21.2111C221.076 16.3241 219.342 11.0431 214.14 11.0431C212.8 11.0431 211.302 11.2007 210.12 11.4372ZM26.4052 47.4586V58.6513H0V1.34803H12.4538V47.4586H26.4052ZM57.4787 58.6513L56.1388 47.7739H44.7096L43.5273 58.6513H30.1277L40.2956 1.34803H60.3163L70.4843 58.6513H57.4787ZM54.72 37.3695L51.4095 12.2254H49.4389L46.2861 37.3695H54.72ZM87.115 58.6513V30.5908L99.5688 58.6513H109.658V1.34803H97.5194V29.4873L85.4597 1.34803H74.8188V58.6513H87.115ZM179.143 47.7739L180.483 58.6513H193.489L183.321 1.34803H163.3L153.132 58.6513H166.532L167.714 47.7739H179.143ZM174.414 12.2254L177.725 37.3695H169.291L172.444 12.2254H174.414Z" fill="#FF9900"/>
<path d="M129.014 39.1115H141.705L136.41 25.2903L127.753 0.33136H113.802L129.014 39.1115Z" fill="#FFC400"/>
</svg>
