<svg width="277" height="126" viewBox="0 0 277 126" fill="none" xmlns="http://www.w3.org/2000/svg">
<path fill-rule="evenodd" clip-rule="evenodd" d="M179.483 62.588H90.9861V125.642H179.483V62.588ZM130.257 65.2153C128.653 65.2153 127.353 66.5154 127.353 68.1191C127.353 69.7229 128.653 71.0229 130.257 71.0229H140.074C141.678 71.0229 142.978 69.7229 142.978 68.1191C142.978 66.5154 141.678 65.2153 140.074 65.2153H130.257Z" fill="#FF9900"/>
<rect x="94.7195" y="73.5119" width="80.0623" height="48.3969" fill="#FFC400"/>
<circle cx="117.06" cy="90.7321" r="8.09393" fill="#FF9900"/>
<path fill-rule="evenodd" clip-rule="evenodd" d="M133.869 115.429H100.251C100.362 106.24 107.845 98.826 117.06 98.826C126.275 98.826 133.758 106.24 133.869 115.429Z" fill="#FF9900"/>
<rect x="142.148" y="85.9568" width="27.2405" height="1.52105" rx="0.760523" fill="#FF9900"/>
<rect x="142.148" y="90.52" width="27.2405" height="1.52105" rx="0.760523" fill="#FF9900"/>
<rect x="142.148" y="94.9448" width="27.2405" height="1.52105" rx="0.760523" fill="#FF9900"/>
<rect x="142.148" y="99.508" width="27.2405" height="1.65932" rx="0.829661" fill="#FF9900"/>
<rect x="142.148" y="104.486" width="27.2405" height="1.65932" rx="0.829661" fill="#FF9900"/>
<rect x="142.148" y="109.464" width="27.2405" height="1.65932" rx="0.829661" fill="#FF9900"/>
<path d="M129.006 68.447V40.1282L113.793 1.34802H127.744L135.469 26.2556L143.036 1.34802H157.066L141.696 40.1282V68.447H129.006Z" fill="#FF9900"/>
<path fill-rule="evenodd" clip-rule="evenodd" d="M251.253 11.9157V48.2524C255.509 49.6711 259.766 48.4888 261.106 45.6512C263.628 39.8185 263.628 28.6258 263.313 23.2659C262.682 11.8368 257.48 9.62983 251.253 11.9157ZM244.79 58.4203C242.819 58.4203 240.849 58.4991 238.957 58.578V1.27475C240.786 1.21476 242.673 0.994999 244.738 0.754424C248.101 0.362764 251.937 -0.0840536 256.771 0.0136054C263.628 0.0924259 270.564 3.24529 273.638 9.86629C277.422 17.9849 277.343 39.5032 273.954 47.7006C269.934 57.6321 263.707 59.5238 253.539 58.8933L253.101 58.8586C250.266 58.6342 247.563 58.4203 244.79 58.4203ZM233.372 23.891C232.584 33.586 229.116 38.2365 223.835 40.1282L233.372 58.6513H219.893L211.46 40.9953H210.12V58.6513H197.823V1.34803C199.293 1.3122 201.675 1.04824 204.176 0.771009C207.177 0.438499 210.349 0.0868957 212.327 0.0868957C216.031 0.0868957 220.366 0.244536 224.15 2.21508C230.377 5.36793 233.766 11.9889 233.372 23.891ZM210.12 11.4372V31.6155C217.686 34.4531 221.076 28.305 221.076 21.2111C221.076 16.3241 219.342 11.0431 214.14 11.0431C212.8 11.0431 211.302 11.2007 210.12 11.4372ZM26.4052 47.4586V58.6513H0V1.34803H12.4538V47.4586H26.4052ZM57.4787 58.6513L56.1388 47.7739H44.7096L43.5273 58.6513H30.1277L40.2956 1.34803H60.3163L70.4843 58.6513H57.4787ZM54.72 37.3695L51.4095 12.2254H49.4389L46.2861 37.3695H54.72ZM87.115 58.6513V30.5908L99.5688 58.6513H109.658V1.34803H97.5194V29.4873L85.4597 1.34803H74.8188V58.6513H87.115ZM179.143 47.7739L180.483 58.6513H193.489L183.321 1.34803H163.3L153.132 58.6513H166.532L167.714 47.7739H179.143ZM174.414 12.2254L177.725 37.3695H169.291L172.444 12.2254H174.414Z" fill="#FF9900"/>
<path d="M129.014 40.1115H141.705L136.41 26.2903L127.753 1.33136H113.802L129.014 40.1115Z" fill="#FFC400"/>
</svg>
