<svg width="33" height="27" viewBox="0 0 33 27" fill="none" xmlns="http://www.w3.org/2000/svg">
<path d="M24.0836 0.749998L23.9392 0.5H23.6506H9.21686H8.92818L8.78385 0.749998L1.56699 13.2498L1.42265 13.4998L1.56699 13.7498L8.78384 26.25L8.92818 26.5H9.21686H23.6506H23.9393L24.0836 26.25L31.3004 13.7498L31.4448 13.4998L31.3004 13.2498L24.0836 0.749998ZM14.3911 9.46222H14.1024L13.9581 9.71221L11.9155 13.2498L11.7711 13.4998L11.9155 13.7498L13.9581 17.2874L14.1024 17.5374H14.3911H18.476H18.7646L18.909 17.2874L20.9516 13.7498L21.0959 13.4998L20.9516 13.2498L18.909 9.71221L18.7646 9.46222H18.476H14.3911ZM11.1721 22.6133L5.91057 13.4998L11.1721 4.38674H21.6953L26.9567 13.4998L21.6951 22.6133H11.1721Z" fill="#1AC084" stroke="white"/>
</svg>
