<svg width="359" height="359" viewBox="0 0 359 359" fill="none" xmlns="http://www.w3.org/2000/svg">
<path d="M274.358 51.4539C278.201 53.6727 281.312 59.0605 281.3 63.4744L281.26 77.4481C281.247 81.8711 278.116 83.6453 274.275 81.4284L220.648 50.1332L217.515 55.4794L214.431 46.5449L195.427 35.9048C191.584 33.6878 188.483 28.3127 188.496 23.8897L188.534 9.91782C188.547 5.50204 191.671 3.71332 195.512 5.93386L274.358 51.4539" fill="url(#paint0_linear)"/>
<path opacity="0.5" d="M205.914 336.778C175.69 336.778 151.187 321.212 151.187 302.007C151.187 282.803 175.69 267.236 205.914 267.236C236.141 267.236 260.643 282.803 260.643 302.007C260.643 321.212 236.141 336.778 205.914 336.778" fill="url(#paint1_linear)"/>
<path d="M158.069 144.971C158.069 144.971 164.159 143.878 164.472 137.16L161.944 134.107C161.122 133.113 159.704 132.851 158.593 133.507C157.1 134.385 155.151 136.105 153.861 139.41C153.427 140.519 153.792 141.798 154.746 142.507L158.069 144.971" fill="#D0F0F9"/>
<path d="M160.408 135.641C160.408 135.641 158.887 126.175 157.028 125.498C155.169 124.822 154.831 127.021 154.831 128.542C154.831 130.063 155.169 131.415 155.169 131.415C155.169 131.415 147.902 124.822 146.379 125.837C144.859 126.851 142.83 132.934 144.689 135.301C146.548 137.67 154.493 140.711 155.846 140.711C157.198 140.711 160.24 140.035 160.408 135.641" fill="#F8CC8A"/>
<path d="M198.652 117.537C198.652 117.537 181.298 143.068 179.294 149.743L163.609 134.727C163.609 134.727 159.604 134.058 156.935 139.065C154.264 144.071 156.935 145.737 156.935 145.737C156.935 145.737 175.957 165.762 180.295 165.762C184.635 165.762 202.323 139.065 202.323 138.062C202.323 137.063 198.652 117.537 198.652 117.537" fill="#1E2A39"/>
<path d="M247.659 125.537C247.659 125.537 265.013 151.069 267.015 157.743L282.701 142.723C282.701 142.723 286.705 142.057 289.375 147.063C292.046 152.068 289.375 153.738 289.375 153.738C289.375 153.738 270.352 173.762 266.014 173.762C261.676 173.762 243.987 147.063 243.987 146.061C243.987 145.06 247.659 125.537 247.659 125.537Z" fill="#1E2A39"/>
<path d="M194.786 288.462C194.786 288.462 192.784 291.799 188.556 294.023C184.33 296.249 181.882 298.476 181.882 300.253C181.882 302.033 184.552 302.923 188.334 302.7C192.117 302.477 194.341 298.251 197.012 297.138C199.68 296.025 202.797 295.803 203.686 294.47C204.577 293.134 203.686 287.794 203.686 287.794L194.786 288.462" fill="white"/>
<path d="M222.71 298.251C222.71 298.251 222.376 301.366 220.596 302.7C218.816 304.036 217.481 306.261 214.588 307.372C211.696 308.486 209.916 310.933 209.916 312.49C209.916 314.048 216.146 315.161 219.705 313.825C223.266 312.49 227.048 307.596 228.605 306.927C230.163 306.261 231.276 304.481 231.498 303.37C231.72 302.255 230.83 298.029 230.83 298.029L222.71 298.251Z" fill="white"/>
<path d="M241.245 191.244C241.245 191.244 240.134 206.947 238.276 217.322C236.421 227.694 233.716 296.153 231.418 298.858C229.12 301.561 225.779 301.272 222.733 298.312C219.686 295.351 216.826 210.947 216.826 210.947L207.543 191.721L241.245 191.244" fill="url(#paint2_linear)"/>
<path d="M197.677 183.447C197.677 183.447 193.227 267.546 193.673 287.127C193.673 292.911 202.573 293.801 204.797 288.017C207.022 282.23 216.366 199.91 215.477 189.232C214.587 178.552 199.012 175.882 197.677 183.447" fill="url(#paint3_linear)"/>
<path d="M227.681 111.403C227.681 111.403 245.037 123.803 246.753 127.928C248.47 132.051 248.836 143.533 245.259 151.185C241.683 158.838 242.99 186.995 241.701 192.504C240.413 198.011 225.56 199.749 216.369 197.973C207.178 196.195 196.06 189.546 196.407 178.829C196.754 168.111 196.527 148.128 195.943 143.3C195.359 138.47 195.994 126.345 198.236 118.216C198.707 116.502 204.48 114.702 204.48 114.702C204.48 114.702 210.571 110.675 227.681 111.403Z" fill="white"/>
<path d="M212.588 109.063C212.588 109.063 212.633 109.278 212.583 109.621C212.391 110.893 211.757 114.147 211.64 115.506C211.528 116.809 213.004 119.065 216.522 118.995C220.039 118.923 226.005 117.45 227.989 113.262C227.83 112.516 228.081 104.756 228.576 100.887L212.588 109.063" fill="#F2BF73"/>
<path d="M228.148 110.608C228.148 110.608 225.355 119.185 215.866 118.966C215.66 118.961 215.449 118.952 215.235 118.937L220.025 126.643C220.025 126.643 227.314 122.271 229.605 119.77C231.897 117.273 231.688 113.732 231.688 113.732L228.148 110.608Z" fill="white"/>
<path d="M215.234 118.937L210.237 123.729C210.237 123.729 206.488 120.605 208.779 113.314L211.903 112.066C211.903 112.066 211.485 116.231 215.234 118.937" fill="white"/>
<path d="M203.785 83.8982C205.798 73.1442 214.319 67.0373 223.956 69.2922C223.956 69.2922 234.405 70.3383 239.047 79.5149C243.688 88.6916 236.869 96.4084 232.504 101.272C230.663 103.272 229.272 104.812 228.396 105.795C228.078 106.165 227.765 106.541 227.433 106.879L227.34 106.983L227.33 106.974C224.348 109.956 220.928 111.643 218.401 112.395C214.198 113.647 209.226 112.931 206.544 110.069C203.861 107.207 201.773 94.654 203.785 83.8982" fill="#F8CC8A"/>
<path d="M231.686 113.732C231.686 113.732 234.289 116.231 230.853 122.479C227.416 128.726 223.667 139.347 223.355 151.219C223.044 163.09 221.481 200.264 223.044 208.386C226.168 211.199 241.162 208.698 245.535 201.202C247.41 190.267 246.473 157.154 248.659 150.281C250.847 143.408 250.222 130.913 248.971 127.478C247.41 124.041 235.33 114.67 231.686 113.732Z" fill="#1E2A39"/>
<path d="M207.529 113.522C207.529 113.522 204.613 124.144 205.03 136.432C205.03 148.72 201.489 199.744 200.865 200.784C200.24 201.825 192.952 195.369 192.744 187.873C192.534 180.375 195.241 134.351 195.658 129.769C196.076 125.185 197.532 117.481 198.574 116.648C199.615 115.815 206.28 113.732 207.529 113.522" fill="#1E2A39"/>
<path d="M236.563 73.2978C236.563 73.2978 233.562 67.5486 225.814 66.049C218.065 64.5494 210.565 70.2985 205.566 70.5479C200.566 70.799 197.816 69.2994 198.817 73.7983C199.816 78.2972 200.816 81.5476 207.065 82.0462C213.315 82.5467 222.815 82.5467 226.313 83.797C229.813 85.0473 230.064 90.296 228.562 95.046C227.063 99.796 226.564 104.544 227.314 104.794C228.064 105.045 231.312 104.295 234.563 101.045C237.811 97.7941 245.561 85.0473 242.812 80.7959C240.063 76.5482 236.563 73.2978 236.563 73.2978" fill="black"/>
<path d="M231.481 98.1286C231.481 98.1286 234.646 93.7941 236.979 94.9631C239.311 96.1285 233.813 105.627 230.313 105.46C227.148 104.96 231.481 98.1286 231.481 98.1286Z" fill="#F8CC8A"/>
<path d="M282.975 144.373C282.975 144.373 285.808 141.372 286.809 141.54C287.808 141.706 291.972 144.04 292.14 148.039C292.14 149.706 289.808 151.372 289.808 151.372C289.808 151.372 285.974 152.039 282.975 144.373Z" fill="#D0F0F9"/>
<path d="M286.432 143.139C286.432 143.139 287.951 133.675 289.812 132.999C291.671 132.322 292.009 134.519 292.009 136.04C292.009 137.562 291.671 138.913 291.671 138.913C291.671 138.913 298.938 132.322 300.459 133.335C301.981 134.351 304.01 140.436 302.151 142.801C300.291 145.168 292.347 148.211 290.994 148.211C289.642 148.211 286.6 147.535 286.432 143.139" fill="#F8CC8A"/>
<path d="M174.328 138.844L174.232 138.523L174.245 138.51L174.228 138.506H174.227L154.267 133.718L135.755 153.347L136.815 156.964L156.708 161.736L156.721 161.778L156.751 161.747L156.795 161.758L156.78 161.713L175.233 142.151L175.173 141.954L156.726 161.523L155.821 158.442L174.328 138.844" fill="#1AC084"/>
<path d="M174.161 138.985L155.786 158.419L156.735 161.512L175.074 142.058L174.161 138.985" fill="#F6FBFE"/>
<path d="M155.777 158.419L156.743 161.51L137.118 156.766L136.236 153.759L155.777 158.419" fill="#ECF1F0"/>
<path d="M155.322 154.206C155.322 154.206 157.821 149.707 157.655 146.872C158.488 144.705 160.488 142.373 161.821 143.04C163.155 143.706 161.321 148.039 161.987 149.204C162.654 150.373 167.153 149.372 167.986 150.373C168.819 151.372 166.486 155.038 164.486 156.204C162.486 157.371 159.987 159.872 159.987 159.872L155.322 154.206" fill="#F8CC8A"/>
<path opacity="0.5" d="M89.9279 353.777C59.7032 353.777 35.2002 338.21 35.2002 319.006C35.2002 299.802 59.7032 284.234 89.9279 284.234C120.154 284.234 144.655 299.802 144.655 319.006C144.655 338.21 120.154 353.777 89.9279 353.777" fill="url(#paint4_linear)"/>
<path d="M64.9985 239.529C64.9985 239.529 69.9983 260.193 70.3321 266.86C70.6653 273.525 67.9981 283.857 69.6653 292.856C71.3315 301.855 70.9978 318.187 71.3315 321.186C71.6646 324.185 71.9985 326.852 73.9972 327.851C75.9973 328.85 77.9976 328.186 80.6633 326.185C83.3303 324.185 91.6624 320.852 91.9949 318.519C92.3291 316.185 86.9955 316.185 85.3297 316.519C83.6628 316.852 80.997 317.852 80.3309 316.852C79.6638 315.853 81.9965 298.522 82.6634 286.523C83.3303 274.524 86.3306 251.526 85.6621 241.195C84.9972 230.864 76.6644 227.53 72.3315 228.531C67.9981 229.528 64.6655 235.196 64.9985 239.529" fill="#F8CC8A"/>
<path d="M109.806 141.047C103.553 131 89.9622 128.042 89.9622 128.042C73.2836 124.629 67.9762 130.694 67.9762 130.694C67.9762 130.694 62.5439 137.088 62.5439 145.725C62.5439 151.647 68.766 168.738 69.1909 182.3C69.0144 191.702 66.2372 207.423 65.9987 209.811C65.5315 214.476 78.3863 227.913 107.307 220.45C110.574 218.585 111.972 216.253 111.972 216.253L112.287 181.29C112.419 179.333 112.549 177.298 112.686 175.114C114.126 152.083 109.806 141.047 109.806 141.047" fill="#FFC400"/>
<path d="M67.9762 130.748C67.9762 130.748 55.8736 137.719 54.0166 169.616C55.5652 175.498 64.8551 178.595 71.9778 173.952C79.0998 169.305 71.716 136.165 67.9762 130.748" fill="#FFC400"/>
<path d="M76.9397 115.909C76.9397 115.909 78.3795 124.305 76.9397 128.144C76.6983 130.065 85.0957 136.542 92.5342 134.862C96.8524 133.904 96.6139 131.743 96.6139 131.743C96.6139 131.743 93.0148 125.745 93.4936 119.987C93.9742 114.229 81.9775 114.709 76.9397 115.909" fill="#F2BF73"/>
<path d="M105.008 98.9939C105.008 109.927 96.1457 118.787 85.2147 118.787C74.2833 118.787 65.4209 109.927 65.4209 98.9939C65.4209 88.0629 74.2833 79.2007 85.2147 79.2007C96.1457 79.2007 105.008 88.0629 105.008 98.9939Z" fill="#F47147"/>
<path d="M105.01 100.315C105.01 100.315 105.631 119 101.313 123.001C96.993 127.003 89.9827 120.397 79.3821 117.913C68.7814 115.188 87.9754 94.5745 87.9754 94.5745L105.01 100.315" fill="#F8CC8A"/>
<path d="M100.47 132.248L95.3078 129.357C95.3078 129.357 82.095 128.117 77.3464 125.022L74.8691 128.531C74.8691 128.531 78.1723 134.931 86.6371 135.758C95.1018 136.584 99.0225 133.279 99.0225 133.279L100.47 132.248Z" fill="white"/>
<path d="M90.5154 76.4526C90.5154 76.4526 106.572 79.2603 107.374 93.7128C106.973 104.951 97.7425 107.359 96.5374 108.563C95.3341 109.768 92.5227 104.55 89.7132 109.768C86.9036 114.986 90.9183 116.191 92.5227 118.196C93.3267 120.204 90.1143 122.612 86.9036 123.013C83.6919 123.416 82.6396 127.03 77.3456 125.022C72.0524 123.013 71.2484 117.394 67.2354 111.775C63.2218 106.154 61.6161 94.515 66.0313 86.0845C70.4467 77.6559 85.2974 75.6468 90.5154 76.4526" fill="black"/>
<path d="M75.665 123.416C75.665 123.416 75.2633 123.013 71.2488 131.845C67.2358 140.676 65.2286 145.09 69.6433 155.127C74.0593 165.16 75.2633 169.977 75.2633 169.977C75.2633 169.977 82.4883 163.955 80.4818 150.709C78.4745 137.464 75.8046 131.669 76.9395 128.144C78.073 124.619 80.4818 123.416 75.665 123.416" fill="black"/>
<path d="M112.995 253.528C112.995 253.528 110.328 314.853 109.996 324.185C109.996 324.185 111.996 325.852 116.329 326.518C120.661 327.185 124.66 327.519 125.993 329.517C127.326 331.518 119.328 335.183 115.328 334.184C111.329 333.185 104.996 335.518 101.663 334.184C99.3303 331.518 100.996 324.52 100.996 322.517C100.996 320.52 95.6644 293.855 96.996 284.855C98.3294 275.857 95.6644 249.193 94.6634 236.862C93.6643 224.531 111.996 225.197 112.995 253.528" fill="#F8CC8A"/>
<path d="M68.6658 189.033C68.6658 189.033 92.4962 200.199 112.327 190.202C112.828 191.201 112.828 196.032 112.828 196.032C112.828 196.032 116.828 229.113 113.077 260.359C113.077 260.359 101.328 268.359 83.581 263.859C65.8337 259.358 66.3326 252.859 66.3326 252.859C66.3326 252.859 58.3334 218.865 61.5835 208.866C64.8329 198.867 67.5825 193.617 67.5825 193.617L68.4995 188.868" fill="#1E2A39"/>
<path d="M102.664 134.154C102.664 134.154 111.33 138.153 115.995 145.819C120.662 153.485 128.66 169.15 130.326 170.483C131.994 171.815 151.657 153.818 154.324 152.484C156.991 151.485 161.657 155.153 160.656 160.15C159.657 165.15 136.993 184.148 130.66 186.482C124.328 188.815 106.328 169.482 100.997 160.817C95.6648 152.152 94.9962 135.82 102.664 134.154" fill="#FFC400"/>
<path d="M100.41 326.769C100.41 326.769 102.327 326.435 105.16 327.935C107.993 329.434 112.575 330.435 114.908 329.434C117.242 328.435 116.993 327.766 116.326 326.769C116.326 326.186 119.741 326.601 121.492 327.017C123.241 327.434 126.159 328.685 126.74 329.851C127.075 331.017 123.741 333.935 119.741 334.684C115.742 335.435 110.577 334.267 109.243 334.519C107.91 334.768 107.41 336.433 106.159 336.517C104.911 336.6 102.661 336.851 101.912 336.268C101.16 335.684 100.078 331.684 100.161 329.685C100.244 327.685 100.41 326.769 100.41 326.769Z" fill="black"/>
<path d="M71.3316 322.019C71.3316 322.019 75.7477 322.019 78.3309 323.77C80.247 324.603 83.5803 322.686 84.3299 321.851C85.0805 321.019 86.1627 318.019 83.497 317.186C82.497 317.018 82.497 317.018 82.497 317.018C82.497 317.018 85.0805 316.185 86.497 316.102C87.9135 316.021 91.4964 316.185 92.8298 317.603C93.3284 318.354 91.9119 321.187 90.163 322.518C88.4122 323.852 81.9141 325.852 80.9139 326.685C79.9138 327.519 79.7465 329.102 78.9145 329.434C78.0803 329.769 74.9141 330.101 73.4145 328.936C71.9147 327.766 71.1643 323.519 71.3316 322.019" fill="black"/>
<defs>
<linearGradient id="paint0_linear" x1="237.867" y1="78.3793" x2="236.842" y2="14.9983" gradientUnits="userSpaceOnUse">
<stop stop-color="#FF9900"/>
<stop offset="1" stop-color="#FFC400"/>
</linearGradient>
<linearGradient id="paint1_linear" x1="241.303" y1="326.505" x2="174.893" y2="280.787" gradientUnits="userSpaceOnUse">
<stop stop-color="#303030"/>
<stop offset="1"/>
</linearGradient>
<linearGradient id="paint2_linear" x1="210.403" y1="252.257" x2="233.931" y2="255.868" gradientUnits="userSpaceOnUse">
<stop offset="0.53941" stop-color="#35B9E2"/>
<stop offset="1" stop-color="#0096C5"/>
</linearGradient>
<linearGradient id="paint3_linear" x1="195.5" y1="242" x2="211" y2="243.5" gradientUnits="userSpaceOnUse">
<stop offset="0.53941" stop-color="#35B9E2"/>
<stop offset="1" stop-color="#0096C5"/>
</linearGradient>
<linearGradient id="paint4_linear" x1="125.316" y1="343.504" x2="58.9055" y2="297.787" gradientUnits="userSpaceOnUse">
<stop stop-color="#303030"/>
<stop offset="1"/>
</linearGradient>
</defs>
</svg>
