<svg width="235" height="235" viewBox="0 0 235 235" fill="none" xmlns="http://www.w3.org/2000/svg">
<path d="M129.023 101.923L158.877 131.773H171.264L185.501 146.016C185.857 142.747 186.053 139.43 186.053 136.07C186.053 85.8521 145.344 45.1393 95.1234 45.1393C44.9024 45.1393 4.19141 85.8521 4.19141 136.07C4.19141 186.29 44.9024 227 95.1234 227C102.148 227 108.977 226.178 115.545 224.668L61.9503 171.073L129.023 101.923" fill="#CECECE"/>
<path d="M185.502 146.016L171.265 131.773H158.878L129.024 101.923L61.9512 171.073L115.546 224.668C152.787 216.117 181.293 184.726 185.502 146.016" fill="#ADADAD"/>
<path d="M167.161 130.143H142.956C140.029 106.309 119.749 87.8372 95.1245 87.8372C68.4854 87.8372 46.8906 109.434 46.8906 136.07C46.8906 162.708 68.4854 184.302 95.1245 184.302C119.749 184.302 140.029 165.831 142.956 141.997H167.161C170.435 141.997 173.088 139.344 173.088 136.07C173.088 132.795 170.435 130.143 167.161 130.143Z" fill="white"/>
<path d="M123.406 107.323L66.376 164.352C73.6932 171.789 83.8651 176.41 95.1235 176.41C117.402 176.41 135.463 158.351 135.463 136.067C135.463 124.811 130.841 114.639 123.406 107.323" fill="#AD5D28"/>
<path d="M95.1236 95.7265C72.8442 95.7265 54.7822 113.785 54.7822 136.067C54.7822 147.09 59.2101 157.071 66.3761 164.353L123.406 107.323C116.123 100.155 106.145 95.7265 95.1236 95.7265Z" fill="#6B3010"/>
<path d="M39.7059 141.446C36.4673 139.877 32.8006 140.682 31.2451 143.208C31.2393 143.225 31.2293 143.237 31.2227 143.251C31.1488 143.377 31.076 143.5 31.011 143.638C29.6214 146.5 31.2617 150.167 34.6715 151.817C37.8985 153.386 41.5544 152.593 43.1188 150.078C43.1377 150.049 43.1558 150.02 43.1727 149.995C43.2397 149.877 43.3056 149.754 43.366 149.628C44.7571 146.766 43.1177 143.102 39.7059 141.446" fill="#6B3010"/>
<path d="M32.0537 136.68C28.8132 135.107 25.1473 135.912 23.5918 138.439C23.5852 138.459 23.576 138.467 23.5694 138.482C23.4932 138.608 23.4216 138.731 23.3569 138.868C21.9692 141.733 23.6075 145.4 27.0171 147.05C30.2444 148.617 33.9 147.823 35.4644 145.308C35.4836 145.282 35.499 145.251 35.5194 145.222C35.5853 145.108 35.6546 144.987 35.713 144.861C37.1015 141.997 35.4632 138.336 32.0537 136.68" fill="#AD5D28"/>
<path d="M64.4709 196.17C61.2315 194.598 57.5644 195.403 56.0089 197.929C56.0035 197.949 55.9943 197.958 55.9866 197.972C55.9138 198.098 55.8388 198.222 55.7752 198.359C54.3864 201.221 56.027 204.888 59.4353 206.538C62.6627 208.107 66.3183 207.314 67.8827 204.802C67.903 204.77 67.9185 204.741 67.9365 204.713C68.0024 204.598 68.072 204.478 68.1313 204.352C69.521 201.487 67.8807 197.823 64.4709 196.17Z" fill="#C48851"/>
<path d="M47.8518 163.31C47.8598 159.712 45.5411 156.755 42.5859 156.455C42.5725 156.455 42.5544 156.452 42.5398 156.452C42.3966 156.437 42.2513 156.429 42.1012 156.429C38.92 156.423 36.3295 159.488 36.3203 163.281C36.3137 166.865 38.6155 169.818 41.5618 170.131C41.5933 170.139 41.628 170.139 41.6592 170.142C41.797 170.153 41.9322 170.165 42.0711 170.165C45.2535 170.168 47.8417 167.103 47.8518 163.31" fill="#3B3129"/>
<path d="M57.0616 176.822C54.8281 173.998 51.1722 173.133 48.6747 174.734C48.6613 174.748 48.6478 174.751 48.6355 174.763C48.5158 174.84 48.3937 174.923 48.2774 175.015C45.782 176.994 45.6677 181.008 48.0199 183.978C50.2469 186.792 53.8836 187.665 56.3859 186.078C56.4148 186.058 56.444 186.041 56.4729 186.024C56.585 185.946 56.6967 185.869 56.8052 185.783C59.2995 183.806 59.415 179.796 57.0616 176.822" fill="#6B3010"/>
<path d="M34.7031 173.938C31.1045 173.943 28.1625 176.272 27.8714 179.229C27.8714 179.249 27.8703 179.26 27.8703 179.277C27.8559 179.423 27.8459 179.567 27.8479 179.716C27.8548 182.898 30.9366 185.474 34.7288 185.465C38.312 185.456 41.2505 183.142 41.5536 180.194C41.5582 180.163 41.5625 180.128 41.5648 180.097C41.5748 179.959 41.5828 179.822 41.5828 179.687C41.5748 176.502 38.4933 173.929 34.7031 173.938" fill="#C48851"/>
<path d="M70.1059 194.059C71.2484 190.642 69.975 187.112 67.2659 185.898C67.249 185.892 67.2378 185.883 67.2224 185.878C67.088 185.82 66.9559 185.766 66.8127 185.717C63.7925 184.709 60.3718 186.809 59.1732 190.404C58.0351 193.81 59.293 197.331 61.9898 198.557C62.0198 198.571 62.0525 198.585 62.0814 198.597C62.2069 198.654 62.3332 198.703 62.4653 198.749C65.4855 199.754 68.9062 197.657 70.1059 194.059" fill="#AD5D28"/>
<path d="M49.3292 195.457C50.4717 192.042 49.1983 188.507 46.4869 187.293C46.4712 187.29 46.46 187.281 46.4442 187.278C46.3122 187.218 46.1781 187.164 46.0349 187.118C43.0158 186.11 39.5937 188.209 38.3954 191.802C37.2561 195.208 38.5151 198.728 41.2119 199.952C41.2443 199.969 41.2767 199.983 41.3047 199.997C41.4291 200.052 41.5565 200.098 41.6897 200.144C44.7088 201.149 48.1284 199.052 49.3292 195.457" fill="#3B3129"/>
<path d="M34.1505 158.362C32.8325 155.013 29.5862 153.123 26.7258 153.934C26.7135 153.942 26.6992 153.942 26.6857 153.948C26.5437 153.988 26.4059 154.034 26.2684 154.088C23.3063 155.257 22.0327 159.067 23.4237 162.593C24.7386 165.928 27.968 167.819 30.8215 167.025C30.8538 167.016 30.8888 167.008 30.9212 166.996C31.0498 166.959 31.1796 166.916 31.307 166.862C34.268 165.696 35.5416 161.889 34.1505 158.362Z" fill="#6B3010"/>
<path d="M42.9243 129.813C44.7697 126.728 44.2908 123.001 41.9028 121.234C41.887 121.228 41.8793 121.213 41.8647 121.208C41.7472 121.122 41.6275 121.039 41.5011 120.964C38.7674 119.331 34.9717 120.641 33.0289 123.895C31.1872 126.974 31.6581 130.684 34.0292 132.46C34.053 132.483 34.0819 132.503 34.11 132.523C34.2197 132.603 34.3326 132.678 34.4523 132.747C37.1838 134.382 40.9772 133.067 42.9243 129.813" fill="#6B3010"/>
<path d="M229.032 102.456C232.587 106.014 232.587 111.774 229.038 115.332C225.48 118.887 219.719 118.887 216.158 115.327C212.609 111.774 136.072 22.3653 136.072 22.3653C136.072 22.3653 225.48 98.9035 229.032 102.456" fill="#CECECE"/>
<path d="M130.219 41.8995C140.095 51.774 153.786 54.0973 160.797 47.0875L125.025 11.3191C118.017 18.3261 120.341 32.0221 130.219 41.8995Z" fill="#CECECE"/>
<path d="M125.025 11.319L160.798 47.0874C167.805 40.0776 165.481 26.3873 155.603 16.5128C145.727 6.63256 132.035 4.3092 125.025 11.319Z" fill="#ADADAD"/>
</svg>
