<svg width="296" height="296" viewBox="0 0 296 296" fill="none" xmlns="http://www.w3.org/2000/svg">
<g clip-path="url(#clip0)">
<path d="M92.6143 265.551C94.6078 260.502 95.5617 262.306 97.7897 264.919C98.0791 265.26 98.5894 265.945 98.9344 266.21C97.476 267.836 97.4849 269.507 97.4642 271.389C94.8883 270.424 92.8399 268.382 92.6143 265.551Z" fill="#F2B891"/>
<path d="M136.915 224.569L130.598 219.367L129.574 220.465C129.186 219.659 128.91 218.831 128.8 217.999C128.096 212.637 127.67 209.144 127.878 205.689C127.885 205.581 127.883 205.475 127.874 205.371C127.698 203.22 124.492 201.11 121.516 199.728L124.267 191.922L125.815 187.533L222.266 217.511L252.35 132.172L155.899 102.193L160.064 90.3756L150.191 87.3065L146.032 99.1264L52.79 70.1459L22.7056 155.485L115.999 184.482L114.929 187.522L110.57 199.912C110.614 199.698 110.668 199.479 110.73 199.258C110.853 198.832 111 198.393 111.189 197.93C111.189 197.93 107.516 196.381 105.014 199.8C104.508 200.492 104.392 201.469 104.571 202.562C103.388 202.906 102.098 203.7 101.267 205.443C100.928 206.155 100.978 207.044 101.31 207.997C100.656 208.453 100.04 209.125 99.5761 210.129C99.1467 211.056 99.4562 212.289 100.228 213.563C99.4367 214.222 98.7438 215.243 98.582 216.83C98.4828 217.807 99.0161 218.867 99.9334 219.854L99.9305 219.856C99.9305 219.856 100.724 221.271 102.399 223.131L93.8803 247.345C90.6275 246.66 86.6877 246.403 85.1048 247.983C85.0286 248.058 84.9565 248.14 84.8892 248.228C82.7445 251.042 80.0788 253.511 75.9482 257.273C75.3068 257.856 74.5395 258.339 73.6996 258.737L73.634 257.28L65.2395 257.611L65.1284 255.71L0.666016 256.554V276.878V284.274L66.4184 277.687L66.2548 274.903L74.409 274.58L74.3918 274.199C74.8537 274.246 75.2908 274.309 75.6694 274.398C78.3469 275.763 80.9937 276.538 83.468 276.936L76.7604 296H83.6954H87.5779L94.4379 276.54C96.1733 276.137 97.1927 275.721 97.1927 275.721V275.719C98.566 275.49 99.6901 274.978 100.265 274.159C101.199 272.828 101.343 271.624 101.167 270.645C102.618 270.107 103.682 269.33 103.967 268.355C104.275 267.3 104.245 266.413 104.041 265.674C104.935 265.126 105.568 264.464 105.779 263.71C106.297 261.863 105.822 260.485 105.131 259.519C106.001 258.773 106.562 257.945 106.63 257.108C106.959 253.04 103.206 252.049 103.082 252.017L111.027 229.481C112.942 230.359 115.118 231.079 117.578 231.502C117.933 231.655 118.316 231.863 118.706 232.099L118.438 232.385L124.574 237.439L122.587 239.511L182.849 296H199.237H234.119L138.272 223.154L136.915 224.569Z" fill="#CECCCC"/>
<path d="M104.814 272.698C104.814 272.698 93.4734 277.627 81.5916 271.179C78.9986 270.523 74.0216 271.003 74.0216 271.003L71.7363 264.335L99.9974 244.064L104.814 272.698Z" fill="#EDB38C"/>
<path d="M107.768 208.505C107.768 208.505 113.509 219.456 126.808 221.887C129.238 223.003 132.814 226.498 132.814 226.498L138.777 222.739L129.479 189.225L107.768 208.505Z" fill="#EDB38C"/>
<path d="M94.4391 296L172.649 59.7245L161.995 56.1982L82.7676 296H94.4391Z" fill="#CE7C59"/>
<path d="M123.531 172.619L134.025 176.409L138.287 163.534L127.759 159.822L123.531 172.619Z" fill="#B7674B"/>
<path d="M161.996 56.1983L127.76 159.822L138.287 163.534L172.649 59.7246L161.996 56.1983Z" fill="#CE7C59"/>
<path d="M110.96 211.049C111.785 215.005 116.695 216.666 116.695 216.666C116.695 216.666 107.769 243.654 106.838 245.458C101.399 255.995 94.2565 260.033 92.5128 266.504C91.0379 271.977 96.8855 276.095 96.8855 276.095L90.25 296H94.439L123.614 207.861L110.376 206.844C110.493 208.32 110.684 209.725 110.96 211.049Z" fill="#B7674B"/>
<path d="M239.761 205.811L24.4453 134.539L56.9048 36.4792L272.219 107.751L239.761 205.811Z" fill="#F2F2F2"/>
<path d="M121.752 210.59C123.366 205.408 121.491 206.214 118.118 206.852C117.679 206.935 116.851 207.149 116.416 207.139C116.532 209.32 115.477 210.616 114.312 212.095C116.924 212.959 119.8 212.653 121.752 210.59Z" fill="#F2B891"/>
<path d="M118.047 202.715C117.729 202.674 117.427 202.614 117.132 202.544C117.842 204.374 117.247 205.986 116.25 207.381C118.151 208.122 120.102 208.218 121.61 207.204C124.747 202.776 121.454 203.151 118.047 202.715Z" fill="#F2B891"/>
<path d="M120.756 197.602C120.286 197.542 119.836 197.456 119.411 197.34C119.518 199.217 118.956 201.133 117.651 202.616C119.619 203.439 121.669 203.57 123.266 202.48C126.632 197.89 124.438 198.074 120.756 197.602Z" fill="#F2B891"/>
<path d="M111.095 199.916C111.095 199.916 106.767 200.284 106.313 205.029C105.858 209.773 117.528 216.267 121.753 210.59C123.366 205.408 121.492 206.214 118.118 206.852C114.744 207.491 111.278 205.441 111.095 199.916Z" fill="#FCCAA4"/>
<path d="M111.094 199.916C111.094 199.916 109.199 200.809 108.744 205.554C108.29 210.298 117.097 215.511 121.752 210.59C123.366 205.408 121.492 206.214 118.118 206.852C114.743 207.49 111.277 205.441 111.094 199.916Z" fill="#F7C09A"/>
<path d="M113.514 193.946C113.514 193.946 109.284 192.957 107.385 197.328C105.484 201.7 116.926 211.953 121.609 207.204C124.747 202.776 121.453 203.151 118.046 202.715C114.641 202.278 111.978 199.256 113.514 193.946Z" fill="#FCCAA4"/>
<path d="M114.038 194.946C114.038 194.946 111.501 193.847 109.6 198.218C107.7 202.59 116.858 210.401 121.61 207.204C124.748 202.776 121.455 203.151 118.048 202.714C114.642 202.278 112.502 200.257 114.038 194.946Z" fill="#F7C09A"/>
<path d="M115.814 188.459C115.814 188.459 111.24 187.409 109.21 191.944C107.181 196.481 117.91 207.224 123.267 202.48C126.633 197.891 124.439 198.074 120.757 197.602C117.075 197.131 114.183 193.975 115.814 188.459Z" fill="#FCCAA4"/>
<path d="M116.198 189.562C116.198 189.562 113.279 188.659 111.249 193.196C109.219 197.732 118.374 205.822 123.265 202.48C126.632 197.891 124.438 198.074 120.756 197.602C117.074 197.131 114.566 195.079 116.198 189.562Z" fill="#F7C09A"/>
<path d="M119.913 183.311C119.913 183.311 115.951 181.532 113.251 185.461C110.55 189.389 118.01 201.258 124.46 198.345C128.386 194.597 125.948 193.864 122.688 192.784C119.428 191.705 117.927 188.486 119.913 183.311Z" fill="#FCCAA4"/>
<path d="M119.54 184.395C119.54 184.395 117.406 183.603 115.341 186.827C112.77 190.841 118.287 200.09 124.462 198.345C128.388 194.597 125.949 193.864 122.69 192.784C119.429 191.705 118.307 188.457 119.54 184.395Z" fill="#F7C09A"/>
<path d="M122.689 192.785C122.534 192.734 122.389 192.673 122.244 192.611C122.513 194.988 121.096 196.451 119.438 197.48C120.937 198.429 122.67 198.851 124.461 198.345C128.387 194.597 125.95 193.864 122.689 192.785Z" fill="#F2B891"/>
<path d="M143.667 218.705C143.667 218.705 138.949 214.032 138.189 207.87C137.429 201.708 137.698 196.197 137.922 192.227C138.148 188.258 129.512 184.31 126.54 183.637C123.568 182.964 117.141 190.585 115.306 191.689C113.471 192.792 119.315 197.812 122.636 195.178C125.956 192.543 126.965 191.404 127.763 191.669C127.99 191.744 129.443 192.209 127.881 193.429C122.777 197.415 120.428 208.212 123.149 213.676C126.951 221.312 140.976 226.836 140.976 226.836L143.667 218.705Z" fill="#F9D0B4"/>
<path d="M147.887 218.51C147.887 218.51 139.677 212.534 138.916 206.372C138.156 200.21 137.696 196.197 137.921 192.227C138.146 188.258 129.557 186.737 126.585 186.063C123.612 185.39 118.954 191.703 117.119 192.807C115.284 193.911 119.313 197.812 122.634 195.178C125.955 192.543 126.964 191.404 127.762 191.669C127.988 191.744 129.915 192.661 128.352 193.882C123.248 197.868 124.402 206.045 125.612 212.029C127.617 221.947 140.975 226.836 140.975 226.836L147.887 218.51Z" fill="#FCCAA4"/>
<path d="M115.117 191.849C115.117 191.849 117.306 194.114 118.539 194.327C121.32 192.449 122.192 190.637 122.004 190.031C121.817 189.424 120.128 187.905 119.465 187.932C117.986 189.011 115.242 191.632 115.117 191.849Z" fill="#FFE4D2"/>
<path d="M155.91 221.147L142.79 236.107L127.736 222.904L140.857 207.944L155.91 221.147Z" fill="white"/>
<path d="M133.393 216.454L127.736 222.903L142.791 236.107L148.81 229.244L133.393 216.454Z" fill="#E2E2E2"/>
<path d="M252.551 296H197.232L132.213 231.09L149.136 212.295L252.551 296Z" fill="#3A3A3A"/>
<path d="M132.213 231.091L197.232 296H214.914L138.521 224.085L132.213 231.091Z" fill="#2D2D2D"/>
<path d="M148.864 225.558C148.864 226.679 147.955 227.589 146.833 227.589C145.712 227.589 144.803 226.679 144.803 225.558C144.803 224.437 145.712 223.528 146.833 223.528C147.955 223.528 148.864 224.437 148.864 225.558Z" fill="#0C0C0C"/>
<path d="M154.18 230.358C154.18 231.479 153.271 232.388 152.149 232.388C151.027 232.388 150.118 231.479 150.118 230.358C150.118 229.237 151.027 228.327 152.149 228.327C153.271 228.327 154.18 229.237 154.18 230.358Z" fill="#0C0C0C"/>
<path d="M159.423 235.304C159.423 236.426 158.514 237.335 157.392 237.335C156.27 237.335 155.361 236.426 155.361 235.304C155.361 234.183 156.27 233.274 157.392 233.274C158.514 233.274 159.423 234.183 159.423 235.304Z" fill="#0C0C0C"/>
<path d="M100.44 261.741C100.713 261.909 100.987 262.052 101.26 262.182C99.559 263.161 99.0114 264.792 98.9128 266.504C96.9677 265.888 95.3883 264.74 94.8496 263.003C95.1833 257.586 97.5129 259.945 100.44 261.741Z" fill="#F2B891"/>
<path d="M101.537 256.06C101.941 256.308 102.345 256.523 102.749 256.699C101.488 258.094 100.725 259.939 100.811 261.912C98.7617 261.319 97.0824 260.136 96.5225 258.285C96.7794 252.599 98.3736 254.119 101.537 256.06Z" fill="#F2B891"/>
<path d="M107.611 263.922C107.611 263.922 110.751 266.923 108.129 270.903C105.507 274.885 92.3455 272.622 92.6154 265.551C94.6089 260.502 95.5628 262.306 97.7908 264.918C100.018 267.533 104.003 268.111 107.611 263.922Z" fill="#FCCAA4"/>
<path d="M107.61 263.922C107.61 263.922 108.526 265.807 105.904 269.787C103.282 273.768 93.1529 272.303 92.6143 265.551C94.6078 260.502 95.5617 262.306 97.7897 264.918C100.017 267.532 104.002 268.111 107.61 263.922Z" fill="#F7C09A"/>
<path d="M109.47 257.755C109.47 257.755 113.385 259.638 112.122 264.234C110.861 268.831 95.5182 269.64 94.8496 263.003C95.1833 257.586 97.5129 259.945 100.44 261.741C103.367 263.538 107.335 262.855 109.47 257.755Z" fill="#FCCAA4"/>
<path d="M108.436 258.206C108.436 258.206 111.102 258.941 109.84 263.537C108.578 268.135 96.5454 268.474 94.8496 263.003C95.1833 257.586 97.5135 259.945 100.44 261.741C103.367 263.537 106.3 263.305 108.436 258.206Z" fill="#F7C09A"/>
<path d="M111.121 252.039C111.121 252.039 115.342 254.09 114.078 258.896C112.814 263.703 97.7192 265.34 96.5225 258.285C96.7788 252.599 98.373 254.118 101.537 256.06C104.7 258.003 108.932 257.359 111.121 252.039Z" fill="#FCCAA4"/>
<path d="M110.13 252.658C110.13 252.658 112.97 253.785 111.705 258.591C110.44 263.397 98.2372 263.956 96.5225 258.285C96.7788 252.599 98.373 254.119 101.537 256.06C104.7 258.002 107.941 257.977 110.13 252.658Z" fill="#F7C09A"/>
<path d="M111.155 245.458C111.155 245.458 115.356 246.558 114.994 251.311C114.634 256.064 101.38 260.629 98.1835 254.315C97.4765 248.933 99.835 249.891 103.051 251.096C106.267 252.3 109.456 250.735 111.155 245.458Z" fill="#FCCAA4"/>
<path d="M110.768 246.538C110.768 246.538 112.927 247.258 112.514 251.064C111.998 255.803 101.9 259.547 98.1855 254.315C97.4785 248.933 99.837 249.891 103.053 251.096C106.269 252.301 109.18 250.473 110.768 246.538Z" fill="#F7C09A"/>
<path d="M103.053 251.096C103.206 251.153 103.357 251.197 103.509 251.24C101.808 252.923 101.995 254.951 102.641 256.793C100.878 256.59 99.2635 255.833 98.1855 254.315C97.4785 248.933 99.837 249.891 103.053 251.096Z" fill="#F2B891"/>
<path d="M70.4567 258.126C70.4567 258.126 77.0627 257.447 81.5198 253.124C85.977 248.801 89.2239 244.34 91.5387 241.107C93.853 237.875 103.054 240.217 105.792 241.557C108.529 242.897 108.753 252.863 109.491 254.874C110.228 256.884 102.528 257.128 101.594 252.994C100.66 248.859 100.588 247.339 99.801 247.044C99.5777 246.961 98.1536 246.412 98.6055 248.343C100.08 254.649 95.1383 264.53 89.5913 267.079C81.8412 270.642 67.4531 266.147 67.4531 266.147L70.4567 258.126Z" fill="#F9D0B4"/>
<path d="M67.291 255.328C67.291 255.328 77.4334 255.823 81.8911 251.5C86.3477 247.177 89.2236 244.34 91.5385 241.107C93.8527 237.875 101.497 242.077 104.234 243.417C106.971 244.757 106.639 252.596 107.376 254.606C108.113 256.617 102.528 257.127 101.593 252.993C100.66 248.859 100.588 247.339 99.8007 247.045C99.5774 246.961 97.5012 246.468 97.9531 248.399C99.4286 254.704 93.4002 260.35 88.705 264.251C80.9224 270.719 67.4523 266.147 67.4523 266.147L67.291 255.328Z" fill="#FCCAA4"/>
<path d="M109.536 255.116C109.536 255.116 106.411 255.506 105.316 254.899C104.329 251.691 104.785 249.734 105.313 249.379C105.84 249.024 108.107 248.902 108.606 249.338C109.081 251.106 109.576 254.868 109.536 255.116Z" fill="#FFE4D2"/>
<path d="M59.3896 252.35L60.2254 272.23L80.2313 271.387L79.3955 251.508L59.3896 252.35Z" fill="white"/>
<path d="M59.9668 266.093L60.2249 272.23L80.2308 271.388L79.9561 264.858L59.9668 266.093Z" fill="#E2E2E2"/>
<path d="M0.666016 282.526L71.6092 274.957L70.217 249.704L0.666016 250.674V282.526Z" fill="#3A3A3A"/>
<path d="M0.666016 274.027V282.526L71.6092 274.957L71.2465 268.38L0.666016 274.027Z" fill="#2D2D2D"/>
<path d="M50.9851 263.726C51.7494 264.547 51.7033 265.831 50.8829 266.595C50.0625 267.36 48.7778 267.315 48.0135 266.494C47.2491 265.674 47.2946 264.388 48.1156 263.624C48.9361 262.86 50.2208 262.905 50.9851 263.726Z" fill="#0C0C0C"/>
<path d="M58.1468 263.614C58.9111 264.435 58.865 265.719 58.0446 266.484C57.2241 267.249 55.9388 267.203 55.1745 266.383C54.4102 265.562 54.4557 264.277 55.2773 263.513C56.0977 262.748 57.3824 262.794 58.1468 263.614Z" fill="#0C0C0C"/>
<path d="M65.3523 263.662C66.1166 264.482 66.0711 265.767 65.2507 266.531C64.4297 267.295 63.145 267.25 62.3806 266.43C61.6163 265.609 61.6618 264.324 62.4828 263.559C63.3033 262.795 64.588 262.841 65.3523 263.662Z" fill="#0C0C0C"/>
<path d="M135.486 163.534C135.486 164.921 134.362 166.044 132.976 166.044C131.59 166.044 130.466 164.921 130.466 163.534C130.466 162.147 131.59 161.023 132.976 161.023C134.362 161.023 135.486 162.147 135.486 163.534Z" fill="#565656"/>
<path d="M164.281 76.5674C164.281 77.9543 163.158 79.0777 161.771 79.0777C160.384 79.0777 159.261 77.9543 159.261 76.5674C159.261 75.1805 160.384 74.0571 161.771 74.0571C163.158 74.0571 164.281 75.1805 164.281 76.5674Z" fill="#565656"/>
<path d="M92.1335 81.394L80.2215 106.95L85.606 79.2731L79.5287 77.2985L67.6168 102.854L73.0012 75.1775L66.9802 73.2212L59.9776 114.494L66.5613 116.634L78.1413 91.7163L72.8637 118.681L79.4474 120.82L98.0419 83.3138L92.1335 81.394ZM89.8893 124.213L106.827 129.717L108.655 124.089L97.6824 120.524L101.431 108.989L110.153 111.823L111.981 106.195L103.259 103.361L106.824 92.3885L117.797 95.9538L119.625 90.3267L102.688 84.8233L89.8893 124.213ZM111.815 131.337L128.415 136.731L130.244 131.104L119.608 127.648L130.579 93.8856L124.614 91.9475L111.815 131.337ZM141.679 141.663C147.25 143.473 152.263 140.871 154.055 135.357L155.883 129.73L150.031 127.828L148.203 133.455C147.453 135.762 145.589 136.712 143.563 136.054C141.538 135.396 140.588 133.532 141.338 131.225L148.432 109.391C149.181 107.084 151.045 106.135 153.071 106.793C155.097 107.451 156.046 109.315 155.297 111.622L153.797 116.236L159.65 118.138L161.149 113.524C162.941 108.009 160.414 102.957 154.843 101.147C149.272 99.3373 144.259 101.939 142.467 107.453L135.373 129.287C133.581 134.801 136.108 139.853 141.679 141.663ZM165.753 149.485C171.493 151.35 176.563 148.767 178.409 143.083L185.394 121.588C187.24 115.904 184.657 110.835 178.917 108.97C173.178 107.105 168.108 109.688 166.261 115.371L159.277 136.867C157.43 142.55 160.013 147.62 165.753 149.485ZM167.582 143.858C165.387 143.145 164.437 141.281 165.242 138.805L172.226 117.309C173.031 114.833 174.894 113.884 177.089 114.597C179.284 115.31 180.233 117.174 179.429 119.65L172.444 141.145C171.64 143.621 169.776 144.571 167.582 143.858ZM212.918 120.639L199.793 144.184L202.789 117.348L194.349 114.606L181.55 153.996L187.402 155.897L196.178 128.887L192.973 157.707L197.137 159.06L211.484 133.86L202.708 160.87L208.673 162.808L221.471 123.418L212.918 120.639ZM215.181 164.923L232.119 170.426L233.947 164.799L222.974 161.234L226.722 149.698L235.444 152.532L237.273 146.905L228.55 144.071L232.116 133.098L243.089 136.664L244.917 131.036L227.979 125.533L215.181 164.923Z" fill="#FF9900"/>
</g>
<defs>
<clipPath id="clip0">
<rect width="295.333" height="295.333" fill="white" transform="translate(0.666992 0.666687)"/>
</clipPath>
</defs>
</svg>
